<svg width="1440" height="199" viewBox="0 0 1440 199" fill="none" xmlns="http://www.w3.org/2000/svg">
<rect x="436.396" y="59" width="43.6396" height="43.0499" fill="#86A96F"/>
<rect x="1134.52" y="59.2679" width="43.6396" height="43.0499" fill="#86A96F"/>
<rect x="87.2791" y="59" width="43.6396" height="43.0499" fill="#86A96F"/>
<rect x="785.406" y="59.2679" width="43.6396" height="43.0499" fill="#86A96F"/>
<rect x="610.954" y="59" width="43.6396" height="43.0499" fill="#86A96F"/>
<rect x="1309.08" y="59.2679" width="43.6396" height="43.0499" fill="#86A96F"/>
<rect x="261.837" y="59" width="43.6396" height="43.0499" fill="#86A96F"/>
<rect x="959.964" y="59.2679" width="43.6396" height="43.0499" fill="#86A96F"/>
<rect x="349.117" y="59" width="43.6396" height="43.0499" fill="#86A96F"/>
<rect x="1047.24" y="59.2679" width="43.6396" height="43.0499" fill="#86A96F"/>
<rect y="59" width="43.6396" height="43.0499" fill="#86A96F"/>
<rect x="698.127" y="59.2679" width="43.6396" height="43.0499" fill="#86A96F"/>
<rect x="523.675" y="59" width="43.6396" height="43.0499" fill="#86A96F"/>
<rect x="1221.8" y="59.2679" width="43.6396" height="43.0499" fill="#86A96F"/>
<rect x="174.558" y="59" width="43.6396" height="43.0499" fill="#86A96F"/>
<rect x="872.685" y="59.2679" width="43.6396" height="43.0499" fill="#86A96F"/>
<rect x="480.035" y="102.05" width="43.6396" height="43.0499" fill="#86A96F"/>
<rect x="1178.16" y="102.318" width="43.6396" height="43.0499" fill="#86A96F"/>
<rect x="130.919" y="102.05" width="43.6396" height="43.0499" fill="#86A96F"/>
<rect x="829.046" y="102.318" width="43.6396" height="43.0499" fill="#86A96F"/>
<rect x="654.594" y="102.05" width="43.6396" height="43.0499" fill="#86A96F"/>
<rect x="1352.72" y="102.318" width="43.6396" height="43.0499" fill="#86A96F"/>
<rect x="305.477" y="102.05" width="43.6396" height="43.0499" fill="#86A96F"/>
<rect x="1003.6" y="102.318" width="43.6396" height="43.0499" fill="#86A96F"/>
<rect x="392.756" y="102.05" width="43.6396" height="43.0499" fill="#86A96F"/>
<rect x="1090.88" y="102.318" width="43.6396" height="43.0499" fill="#86A96F"/>
<rect x="43.6394" y="102.05" width="43.6396" height="43.0499" fill="#86A96F"/>
<rect x="741.767" y="102.318" width="43.6396" height="43.0499" fill="#86A96F"/>
<rect x="567.315" y="102.05" width="43.6396" height="43.0499" fill="#86A96F"/>
<rect x="1265.44" y="102.318" width="43.6396" height="43.0499" fill="#86A96F"/>
<rect x="218.198" y="102.05" width="43.6396" height="43.0499" fill="#86A96F"/>
<rect x="916.325" y="102.318" width="43.6396" height="43.0499" fill="#86A96F"/>
<rect x="1396.36" y="59.2679" width="43.6396" height="43.0499" fill="#86A96F"/>
<ellipse cx="1205.92" cy="43.3015" rx="21.4399" ry="20.9295" transform="rotate(25.0817 1205.92 43.3015)" fill="#B09FCA"/>
<ellipse cx="1204.31" cy="78.0554" rx="21.4399" ry="20.9295" transform="rotate(25.0817 1204.31 78.0554)" fill="#B09FCA"/>
<ellipse cx="1239.88" cy="40.5955" rx="21.4399" ry="20.9295" transform="rotate(25.0817 1239.88 40.5955)" fill="#B09FCA"/>
<ellipse cx="1237.84" cy="76.2738" rx="21.4399" ry="20.9295" transform="rotate(25.0817 1237.84 76.2738)" fill="#B09FCA"/>
<ellipse cx="1220.67" cy="62.0412" rx="15.6878" ry="15.3142" transform="rotate(25.0817 1220.67 62.0412)" fill="#F6F3F0"/>
<ellipse cx="262.87" cy="128.682" rx="21.4399" ry="20.9295" transform="rotate(17.1648 262.87 128.682)" fill="#B09FCA"/>
<ellipse cx="266.061" cy="163.326" rx="21.4399" ry="20.9295" transform="rotate(17.1648 266.061 163.326)" fill="#B09FCA"/>
<ellipse cx="296.131" cy="121.325" rx="21.4399" ry="20.9295" transform="rotate(17.1648 296.131 121.325)" fill="#B09FCA"/>
<ellipse cx="299.02" cy="156.944" rx="21.4399" ry="20.9295" transform="rotate(17.1648 299.02 156.944)" fill="#B09FCA"/>
<ellipse cx="280.061" cy="145.211" rx="15.6878" ry="15.3142" transform="rotate(17.1648 280.061 145.211)" fill="#F6F3F0"/>
</svg>
