<svg width="1440" height="240" viewBox="0 0 1440 240" fill="none" xmlns="http://www.w3.org/2000/svg">
<rect width="1440" height="240" fill="#EEEDD8"/>
<path d="M55.3789 180.312C55.1901 182.314 54.7181 184.136 53.9629 185.778C53.2077 187.402 52.2165 188.79 50.9893 189.941C49.7432 191.112 48.2611 192.018 46.543 192.66C44.8438 193.283 42.9557 193.595 40.8789 193.595C39.1797 193.595 37.6126 193.368 36.1777 192.915C34.7617 192.443 33.4967 191.782 32.3828 190.933C31.3066 190.14 30.3626 189.186 29.5508 188.072C28.7578 186.939 28.0876 185.703 27.54 184.362C26.9925 183.041 26.5771 181.606 26.2939 180.058C26.0296 178.509 25.8975 176.895 25.8975 175.215V169.579C25.8975 167.974 26.0296 166.426 26.2939 164.935C26.5583 163.443 26.9548 162.036 27.4834 160.715C28.0498 159.242 28.7767 157.911 29.6641 156.722C30.5703 155.513 31.6087 154.484 32.7793 153.635C33.8932 152.861 35.1204 152.257 36.4609 151.822C37.8203 151.388 39.3024 151.171 40.9072 151.171C43.0785 151.171 45.0137 151.492 46.7129 152.134C48.431 152.776 49.8942 153.682 51.1025 154.853C52.3298 156.042 53.2926 157.477 53.9912 159.157C54.7087 160.838 55.1712 162.707 55.3789 164.765H48.582C48.4688 163.537 48.2327 162.433 47.874 161.451C47.5342 160.451 47.0622 159.601 46.458 158.902C45.835 158.204 45.0703 157.675 44.1641 157.316C43.2578 156.939 42.1722 156.75 40.9072 156.75C40.0199 156.75 39.2174 156.873 38.5 157.118C37.8014 157.364 37.1784 157.713 36.6309 158.166C35.8757 158.714 35.2432 159.431 34.7334 160.318C34.2425 161.187 33.8366 162.159 33.5156 163.235C33.2702 164.179 33.0814 165.189 32.9492 166.266C32.8359 167.323 32.7793 168.409 32.7793 169.522V175.215C32.7793 176.593 32.8548 177.886 33.0059 179.095C33.1758 180.303 33.4307 181.408 33.7705 182.408C34.0348 183.239 34.3652 183.994 34.7617 184.674C35.1771 185.354 35.668 185.939 36.2344 186.43C36.8197 186.958 37.4899 187.364 38.2451 187.647C39.0192 187.912 39.8971 188.044 40.8789 188.044C42.0495 188.044 43.0879 187.874 43.9941 187.534C44.9004 187.194 45.6745 186.694 46.3164 186.033C46.9395 185.391 47.4398 184.589 47.8174 183.626C48.195 182.663 48.4404 181.559 48.5537 180.312H55.3789ZM83.7275 161.791C84.8226 161.791 85.8799 161.867 86.8994 162.018C87.9378 162.169 88.7497 162.348 89.335 162.556L88.3721 169.239C87.3337 169.013 86.3047 168.843 85.2852 168.729C84.2845 168.616 83.2839 168.56 82.2832 168.56C81.1504 168.56 80.1309 168.673 79.2246 168.899C78.3184 169.126 77.516 169.475 76.8174 169.947C76.0622 170.4 75.4202 170.976 74.8916 171.675C74.363 172.373 73.9193 173.176 73.5605 174.082V193H66.792V162.357H73.1357L73.4189 166.605L73.4473 167.313C74.6934 165.595 76.1849 164.245 77.9219 163.264C79.6777 162.282 81.613 161.791 83.7275 161.791ZM111.68 193.566C109.414 193.566 107.337 193.189 105.449 192.434C103.58 191.678 101.975 190.631 100.635 189.29C99.2943 187.968 98.2559 186.411 97.5195 184.617C96.8021 182.805 96.4434 180.851 96.4434 178.755V177.594C96.4434 175.196 96.821 173.025 97.5762 171.08C98.3314 169.135 99.3698 167.474 100.691 166.096C102.013 164.717 103.542 163.66 105.279 162.924C107.035 162.169 108.904 161.791 110.887 161.791C113.096 161.791 115.05 162.169 116.749 162.924C118.448 163.66 119.874 164.689 121.025 166.011C122.177 167.351 123.046 168.947 123.631 170.797C124.216 172.647 124.509 174.667 124.509 176.857V179.774H103.269V179.916C103.476 181.257 103.797 182.38 104.231 183.286C104.666 184.192 105.26 185.004 106.016 185.722C106.771 186.477 107.658 187.062 108.678 187.478C109.716 187.893 110.849 188.101 112.076 188.101C113.757 188.101 115.324 187.78 116.777 187.138C118.231 186.477 119.43 185.542 120.374 184.334L123.999 187.846C122.979 189.318 121.412 190.64 119.298 191.811C117.202 192.981 114.663 193.566 111.68 193.566ZM110.858 167.285C109.896 167.285 108.999 167.465 108.168 167.823C107.356 168.163 106.629 168.654 105.987 169.296C105.345 169.957 104.807 170.75 104.373 171.675C103.939 172.6 103.618 173.648 103.41 174.818H117.825V174.365C117.825 173.478 117.665 172.6 117.344 171.731C117.023 170.844 116.57 170.07 115.984 169.409C115.418 168.767 114.701 168.257 113.832 167.88C112.982 167.483 111.991 167.285 110.858 167.285ZM151.781 193C151.574 192.622 151.404 192.169 151.271 191.641C151.158 191.093 151.054 190.527 150.96 189.941C150.488 190.432 149.95 190.904 149.346 191.357C148.76 191.792 148.1 192.169 147.363 192.49C146.627 192.83 145.834 193.094 144.984 193.283C144.135 193.472 143.219 193.566 142.237 193.566C140.651 193.566 139.198 193.34 137.876 192.887C136.573 192.415 135.459 191.773 134.534 190.961C133.59 190.168 132.854 189.215 132.325 188.101C131.815 186.968 131.561 185.75 131.561 184.447C131.561 182.767 131.891 181.285 132.552 180.001C133.231 178.698 134.213 177.622 135.497 176.772C136.687 175.979 138.15 175.375 139.887 174.96C141.643 174.545 143.625 174.337 145.834 174.337H150.762V172.27C150.762 171.477 150.62 170.759 150.337 170.117C150.073 169.475 149.686 168.918 149.176 168.446C148.628 167.974 147.958 167.616 147.165 167.37C146.391 167.106 145.494 166.974 144.475 166.974C143.549 166.974 142.738 167.087 142.039 167.313C141.359 167.54 140.793 167.852 140.34 168.248C139.887 168.607 139.547 169.05 139.32 169.579C139.113 170.089 139.009 170.636 139.009 171.222H132.212C132.231 169.994 132.523 168.814 133.09 167.682C133.656 166.549 134.487 165.548 135.582 164.68C136.639 163.792 137.942 163.094 139.49 162.584C141.057 162.055 142.841 161.791 144.843 161.791C146.636 161.791 148.307 162.018 149.855 162.471C151.423 162.905 152.772 163.556 153.905 164.425C155.038 165.293 155.925 166.398 156.567 167.738C157.209 169.06 157.53 170.589 157.53 172.326V185.948C157.53 187.326 157.625 188.573 157.813 189.687C158.021 190.782 158.314 191.726 158.691 192.519V193H151.781ZM143.54 188.129C144.427 188.129 145.249 188.016 146.004 187.789C146.778 187.562 147.477 187.27 148.1 186.911C148.723 186.552 149.261 186.146 149.714 185.693C150.167 185.24 150.516 184.768 150.762 184.277V178.613H146.4C144.928 178.613 143.653 178.755 142.577 179.038C141.501 179.302 140.642 179.689 140 180.199C139.434 180.633 139.009 181.153 138.726 181.757C138.461 182.361 138.329 183.041 138.329 183.796C138.329 184.419 138.442 185.004 138.669 185.552C138.896 186.08 139.226 186.534 139.66 186.911C140.094 187.289 140.632 187.591 141.274 187.817C141.916 188.025 142.672 188.129 143.54 188.129ZM180.64 154.881V162.357H192.166V167.427H180.64V182.068C180.64 183.201 180.772 184.155 181.036 184.929C181.319 185.684 181.706 186.279 182.197 186.713C182.688 187.166 183.273 187.487 183.953 187.676C184.633 187.865 185.379 187.959 186.19 187.959C186.776 187.959 187.38 187.931 188.003 187.874C188.626 187.817 189.23 187.742 189.815 187.647C190.382 187.572 190.91 187.487 191.401 187.393C191.911 187.279 192.336 187.185 192.676 187.109L193.412 191.782C192.921 192.084 192.326 192.349 191.628 192.575C190.948 192.783 190.212 192.962 189.419 193.113C188.626 193.264 187.795 193.378 186.927 193.453C186.077 193.548 185.228 193.595 184.378 193.595C182.83 193.595 181.404 193.387 180.102 192.972C178.818 192.537 177.713 191.867 176.788 190.961C175.863 190.074 175.136 188.931 174.607 187.534C174.098 186.137 173.843 184.457 173.843 182.493V167.427H166.423V162.357H173.843V154.881H180.64ZM203.438 162.357H219.693V187.393H228.699V193H203.438V187.393H212.868V167.993H203.438V162.357ZM212.245 154.428C212.245 153.88 212.34 153.38 212.528 152.927C212.717 152.455 212.991 152.049 213.35 151.709C213.689 151.388 214.095 151.143 214.567 150.973C215.058 150.784 215.606 150.689 216.21 150.689C217.229 150.689 218.051 150.954 218.674 151.482C219.316 151.992 219.684 152.653 219.778 153.465C219.91 154.296 219.769 155.022 219.354 155.646C218.938 156.25 218.334 156.656 217.541 156.863C217.145 157.222 216.673 157.458 216.125 157.571C215.577 157.685 214.973 157.637 214.312 157.43C213.633 157.222 213.114 156.854 212.755 156.325C212.415 155.778 212.245 155.145 212.245 154.428ZM235.468 177.396C235.468 175.168 235.789 173.11 236.431 171.222C237.073 169.315 238.007 167.663 239.234 166.266C240.443 164.868 241.925 163.773 243.681 162.98C245.437 162.188 247.438 161.791 249.685 161.791C251.931 161.791 253.933 162.188 255.688 162.98C257.463 163.773 258.964 164.868 260.191 166.266C261.4 167.663 262.325 169.315 262.967 171.222C263.609 173.11 263.93 175.168 263.93 177.396V177.99C263.93 180.237 263.609 182.304 262.967 184.192C262.325 186.08 261.4 187.723 260.191 189.12C258.983 190.517 257.492 191.612 255.717 192.405C253.961 193.198 251.969 193.595 249.741 193.595C247.494 193.595 245.484 193.198 243.709 192.405C241.934 191.612 240.443 190.517 239.234 189.12C238.007 187.723 237.073 186.08 236.431 184.192C235.789 182.304 235.468 180.237 235.468 177.99V177.396ZM242.236 177.99C242.236 179.368 242.378 180.671 242.661 181.898C242.963 183.126 243.426 184.202 244.049 185.127C244.653 186.052 245.427 186.788 246.371 187.336C247.315 187.865 248.438 188.129 249.741 188.129C251.006 188.129 252.111 187.865 253.055 187.336C253.999 186.788 254.773 186.052 255.377 185.127C255.981 184.202 256.425 183.126 256.708 181.898C257.01 180.671 257.161 179.368 257.161 177.99V177.396C257.161 176.055 257.01 174.771 256.708 173.544C256.406 172.317 255.962 171.241 255.377 170.315C254.754 169.39 253.97 168.654 253.026 168.106C252.101 167.559 250.987 167.285 249.685 167.285C248.401 167.285 247.287 167.559 246.343 168.106C245.418 168.654 244.653 169.39 244.049 170.315C243.426 171.241 242.963 172.317 242.661 173.544C242.378 174.771 242.236 176.055 242.236 177.396V177.99ZM271.548 193V162.357H277.665L278.09 166.719C278.505 166.133 278.958 165.595 279.449 165.104C279.959 164.595 280.497 164.142 281.063 163.745C281.97 163.122 282.961 162.641 284.037 162.301C285.113 161.961 286.246 161.791 287.436 161.791C289.003 161.791 290.438 162.018 291.74 162.471C293.043 162.924 294.157 163.641 295.082 164.623C296.007 165.605 296.725 166.86 297.234 168.39C297.744 169.9 297.999 171.731 297.999 173.884V193H291.23V173.997C291.23 172.732 291.089 171.675 290.806 170.825C290.522 169.976 290.107 169.296 289.56 168.786C289.012 168.276 288.351 167.918 287.577 167.71C286.803 167.483 285.916 167.37 284.915 167.37C284.084 167.37 283.31 167.483 282.593 167.71C281.875 167.918 281.224 168.22 280.639 168.616C280.186 168.918 279.761 169.286 279.364 169.721C278.968 170.155 278.618 170.627 278.316 171.137V193H271.548ZM339.97 177.396C339.97 175.168 340.291 173.11 340.933 171.222C341.575 169.315 342.509 167.663 343.736 166.266C344.945 164.868 346.427 163.773 348.183 162.98C349.938 162.188 351.94 161.791 354.187 161.791C356.433 161.791 358.435 162.188 360.19 162.98C361.965 163.773 363.466 164.868 364.693 166.266C365.902 167.663 366.827 169.315 367.469 171.222C368.111 173.11 368.432 175.168 368.432 177.396V177.99C368.432 180.237 368.111 182.304 367.469 184.192C366.827 186.08 365.902 187.723 364.693 189.12C363.485 190.517 361.993 191.612 360.219 192.405C358.463 193.198 356.471 193.595 354.243 193.595C351.996 193.595 349.986 193.198 348.211 192.405C346.436 191.612 344.945 190.517 343.736 189.12C342.509 187.723 341.575 186.08 340.933 184.192C340.291 182.304 339.97 180.237 339.97 177.99V177.396ZM346.738 177.99C346.738 179.368 346.88 180.671 347.163 181.898C347.465 183.126 347.928 184.202 348.551 185.127C349.155 186.052 349.929 186.788 350.873 187.336C351.817 187.865 352.94 188.129 354.243 188.129C355.508 188.129 356.613 187.865 357.557 187.336C358.501 186.788 359.275 186.052 359.879 185.127C360.483 184.202 360.927 183.126 361.21 181.898C361.512 180.671 361.663 179.368 361.663 177.99V177.396C361.663 176.055 361.512 174.771 361.21 173.544C360.908 172.317 360.464 171.241 359.879 170.315C359.256 169.39 358.472 168.654 357.528 168.106C356.603 167.559 355.489 167.285 354.187 167.285C352.903 167.285 351.789 167.559 350.845 168.106C349.92 168.654 349.155 169.39 348.551 170.315C347.928 171.241 347.465 172.317 347.163 173.544C346.88 174.771 346.738 176.055 346.738 177.396V177.99ZM383.753 193V167.427H375.54V162.357H383.753V160.488C383.753 158.487 384.055 156.731 384.659 155.221C385.282 153.691 386.16 152.408 387.293 151.369C388.426 150.35 389.785 149.576 391.371 149.047C392.976 148.518 394.77 148.254 396.752 148.254C397.451 148.254 398.13 148.292 398.791 148.367C399.471 148.424 400.132 148.499 400.773 148.594C401.302 148.669 401.84 148.764 402.388 148.877C402.935 148.971 403.492 149.075 404.059 149.188L403.521 154.598C402.765 154.39 401.906 154.211 400.943 154.06C399.999 153.909 398.923 153.833 397.715 153.833C396.45 153.833 395.355 153.984 394.43 154.286C393.523 154.588 392.778 155.032 392.192 155.617C391.645 156.165 391.229 156.844 390.946 157.656C390.682 158.468 390.55 159.412 390.55 160.488V162.357H401.906V167.427H390.55V193H383.753ZM453.619 151.766L458.717 169.409L464.353 151.766H472.82V193H466.42V179.01L466.816 160.602L460.473 180.284H456.933L451.184 161.281L451.552 179.01V193H445.18V151.766H453.619ZM494.854 193.566C492.588 193.566 490.511 193.189 488.623 192.434C486.754 191.678 485.149 190.631 483.809 189.29C482.468 187.968 481.43 186.411 480.693 184.617C479.976 182.805 479.617 180.851 479.617 178.755V177.594C479.617 175.196 479.995 173.025 480.75 171.08C481.505 169.135 482.544 167.474 483.865 166.096C485.187 164.717 486.716 163.66 488.453 162.924C490.209 162.169 492.078 161.791 494.061 161.791C496.27 161.791 498.224 162.169 499.923 162.924C501.622 163.66 503.048 164.689 504.199 166.011C505.351 167.351 506.219 168.947 506.805 170.797C507.39 172.647 507.683 174.667 507.683 176.857V179.774H486.442V179.916C486.65 181.257 486.971 182.38 487.405 183.286C487.84 184.192 488.434 185.004 489.189 185.722C489.945 186.477 490.832 187.062 491.852 187.478C492.89 187.893 494.023 188.101 495.25 188.101C496.93 188.101 498.497 187.78 499.951 187.138C501.405 186.477 502.604 185.542 503.548 184.334L507.173 187.846C506.153 189.318 504.586 190.64 502.472 191.811C500.376 192.981 497.837 193.566 494.854 193.566ZM494.032 167.285C493.069 167.285 492.173 167.465 491.342 167.823C490.53 168.163 489.803 168.654 489.161 169.296C488.519 169.957 487.981 170.75 487.547 171.675C487.113 172.6 486.792 173.648 486.584 174.818H500.999V174.365C500.999 173.478 500.839 172.6 500.518 171.731C500.197 170.844 499.743 170.07 499.158 169.409C498.592 168.767 497.874 168.257 497.006 167.88C496.156 167.483 495.165 167.285 494.032 167.285ZM514.479 177.452C514.479 175.13 514.753 173.015 515.301 171.108C515.867 169.183 516.679 167.531 517.736 166.152C518.775 164.774 520.04 163.707 521.531 162.952C523.042 162.178 524.741 161.791 526.629 161.791C528.328 161.791 529.81 162.093 531.075 162.697C532.359 163.283 533.492 164.123 534.474 165.218V149.5H541.242V193H535.097L534.785 189.8C533.803 191.008 532.633 191.943 531.273 192.604C529.914 193.245 528.347 193.566 526.572 193.566C524.703 193.566 523.023 193.179 521.531 192.405C520.04 191.612 518.775 190.517 517.736 189.12C516.698 187.742 515.896 186.109 515.329 184.221C514.763 182.314 514.479 180.256 514.479 178.047V177.452ZM521.248 178.047C521.248 179.406 521.38 180.69 521.645 181.898C521.909 183.107 522.324 184.155 522.891 185.042C523.457 185.967 524.184 186.694 525.071 187.223C525.959 187.732 527.025 187.987 528.271 187.987C529.801 187.987 531.066 187.657 532.066 186.996C533.067 186.316 533.869 185.401 534.474 184.249V171.08C533.869 169.947 533.067 169.05 532.066 168.39C531.085 167.71 529.839 167.37 528.328 167.37C527.063 167.37 525.978 167.634 525.071 168.163C524.184 168.692 523.466 169.419 522.919 170.344C522.334 171.269 521.909 172.345 521.645 173.572C521.38 174.781 521.248 176.074 521.248 177.452V178.047ZM551.777 162.357H568.033V187.393H577.039V193H551.777V187.393H561.208V167.993H551.777V162.357ZM560.585 154.428C560.585 153.88 560.679 153.38 560.868 152.927C561.057 152.455 561.331 152.049 561.689 151.709C562.029 151.388 562.435 151.143 562.907 150.973C563.398 150.784 563.946 150.689 564.55 150.689C565.569 150.689 566.391 150.954 567.014 151.482C567.656 151.992 568.024 152.653 568.118 153.465C568.25 154.296 568.109 155.022 567.693 155.646C567.278 156.25 566.674 156.656 565.881 156.863C565.484 157.222 565.012 157.458 564.465 157.571C563.917 157.685 563.313 157.637 562.652 157.43C561.973 157.222 561.453 156.854 561.095 156.325C560.755 155.778 560.585 155.145 560.585 154.428ZM604.623 193C604.415 192.622 604.245 192.169 604.113 191.641C604 191.093 603.896 190.527 603.802 189.941C603.33 190.432 602.792 190.904 602.188 191.357C601.602 191.792 600.941 192.169 600.205 192.49C599.469 192.83 598.676 193.094 597.826 193.283C596.977 193.472 596.061 193.566 595.079 193.566C593.493 193.566 592.039 193.34 590.718 192.887C589.415 192.415 588.301 191.773 587.376 190.961C586.432 190.168 585.696 189.215 585.167 188.101C584.657 186.968 584.402 185.75 584.402 184.447C584.402 182.767 584.733 181.285 585.394 180.001C586.073 178.698 587.055 177.622 588.339 176.772C589.528 175.979 590.992 175.375 592.729 174.96C594.484 174.545 596.467 174.337 598.676 174.337H603.604V172.27C603.604 171.477 603.462 170.759 603.179 170.117C602.914 169.475 602.527 168.918 602.018 168.446C601.47 167.974 600.8 167.616 600.007 167.37C599.233 167.106 598.336 166.974 597.316 166.974C596.391 166.974 595.579 167.087 594.881 167.313C594.201 167.54 593.635 167.852 593.182 168.248C592.729 168.607 592.389 169.05 592.162 169.579C591.954 170.089 591.851 170.636 591.851 171.222H585.054C585.073 169.994 585.365 168.814 585.932 167.682C586.498 166.549 587.329 165.548 588.424 164.68C589.481 163.792 590.784 163.094 592.332 162.584C593.899 162.055 595.683 161.791 597.685 161.791C599.478 161.791 601.149 162.018 602.697 162.471C604.264 162.905 605.614 163.556 606.747 164.425C607.88 165.293 608.767 166.398 609.409 167.738C610.051 169.06 610.372 170.589 610.372 172.326V185.948C610.372 187.326 610.466 188.573 610.655 189.687C610.863 190.782 611.156 191.726 611.533 192.519V193H604.623ZM596.382 188.129C597.269 188.129 598.09 188.016 598.846 187.789C599.62 187.562 600.318 187.27 600.941 186.911C601.564 186.552 602.103 186.146 602.556 185.693C603.009 185.24 603.358 184.768 603.604 184.277V178.613H599.242C597.77 178.613 596.495 178.755 595.419 179.038C594.343 179.302 593.484 179.689 592.842 180.199C592.275 180.633 591.851 181.153 591.567 181.757C591.303 182.361 591.171 183.041 591.171 183.796C591.171 184.419 591.284 185.004 591.511 185.552C591.737 186.08 592.068 186.534 592.502 186.911C592.936 187.289 593.474 187.591 594.116 187.817C594.758 188.025 595.513 188.129 596.382 188.129ZM662.425 193V167.427H654.212V162.357H662.425V160.488C662.425 158.487 662.727 156.731 663.331 155.221C663.954 153.691 664.832 152.408 665.965 151.369C667.098 150.35 668.457 149.576 670.043 149.047C671.648 148.518 673.441 148.254 675.424 148.254C676.122 148.254 676.802 148.292 677.463 148.367C678.143 148.424 678.803 148.499 679.445 148.594C679.974 148.669 680.512 148.764 681.06 148.877C681.607 148.971 682.164 149.075 682.73 149.188L682.192 154.598C681.437 154.39 680.578 154.211 679.615 154.06C678.671 153.909 677.595 153.833 676.387 153.833C675.122 153.833 674.027 153.984 673.102 154.286C672.195 154.588 671.45 155.032 670.864 155.617C670.317 156.165 669.901 156.844 669.618 157.656C669.354 158.468 669.222 159.412 669.222 160.488V162.357H680.578V167.427H669.222V193H662.425ZM688.31 177.396C688.31 175.168 688.631 173.11 689.272 171.222C689.914 169.315 690.849 167.663 692.076 166.266C693.285 164.868 694.767 163.773 696.522 162.98C698.278 162.188 700.28 161.791 702.526 161.791C704.773 161.791 706.774 162.188 708.53 162.98C710.305 163.773 711.806 164.868 713.033 166.266C714.242 167.663 715.167 169.315 715.809 171.222C716.451 173.11 716.771 175.168 716.771 177.396V177.99C716.771 180.237 716.451 182.304 715.809 184.192C715.167 186.08 714.242 187.723 713.033 189.12C711.825 190.517 710.333 191.612 708.559 192.405C706.803 193.198 704.811 193.595 702.583 193.595C700.336 193.595 698.326 193.198 696.551 192.405C694.776 191.612 693.285 190.517 692.076 189.12C690.849 187.723 689.914 186.08 689.272 184.192C688.631 182.304 688.31 180.237 688.31 177.99V177.396ZM695.078 177.99C695.078 179.368 695.22 180.671 695.503 181.898C695.805 183.126 696.268 184.202 696.891 185.127C697.495 186.052 698.269 186.788 699.213 187.336C700.157 187.865 701.28 188.129 702.583 188.129C703.848 188.129 704.952 187.865 705.896 187.336C706.84 186.788 707.615 186.052 708.219 185.127C708.823 184.202 709.267 183.126 709.55 181.898C709.852 180.671 710.003 179.368 710.003 177.99V177.396C710.003 176.055 709.852 174.771 709.55 173.544C709.248 172.317 708.804 171.241 708.219 170.315C707.596 169.39 706.812 168.654 705.868 168.106C704.943 167.559 703.829 167.285 702.526 167.285C701.243 167.285 700.129 167.559 699.185 168.106C698.259 168.654 697.495 169.39 696.891 170.315C696.268 171.241 695.805 172.317 695.503 173.544C695.22 174.771 695.078 176.055 695.078 177.396V177.99ZM745.573 161.791C746.668 161.791 747.726 161.867 748.745 162.018C749.784 162.169 750.595 162.348 751.181 162.556L750.218 169.239C749.179 169.013 748.15 168.843 747.131 168.729C746.13 168.616 745.13 168.56 744.129 168.56C742.996 168.56 741.977 168.673 741.07 168.899C740.164 169.126 739.362 169.475 738.663 169.947C737.908 170.4 737.266 170.976 736.737 171.675C736.209 172.373 735.765 173.176 735.406 174.082V193H728.638V162.357H734.981L735.265 166.605L735.293 167.313C736.539 165.595 738.031 164.245 739.768 163.264C741.523 162.282 743.459 161.791 745.573 161.791ZM801.194 177.282V193H794.397V151.766H808.189C810.266 151.785 812.173 152.096 813.91 152.7C815.666 153.304 817.176 154.163 818.441 155.277C819.706 156.391 820.688 157.741 821.387 159.327C822.085 160.913 822.435 162.697 822.435 164.68C822.435 166.587 822.085 168.314 821.387 169.862C820.688 171.392 819.706 172.704 818.441 173.799C817.176 174.913 815.666 175.772 813.91 176.376C812.173 176.98 810.266 177.282 808.189 177.282H801.194ZM801.194 171.731H808.189C809.341 171.713 810.37 171.533 811.276 171.193C812.201 170.835 812.985 170.344 813.627 169.721C814.269 169.098 814.75 168.361 815.071 167.512C815.411 166.662 815.581 165.737 815.581 164.736C815.581 163.641 815.411 162.65 815.071 161.763C814.75 160.856 814.269 160.073 813.627 159.412C812.985 158.751 812.201 158.242 811.276 157.883C810.37 157.524 809.341 157.335 808.189 157.316H801.194V171.731ZM850.075 161.791C851.17 161.791 852.228 161.867 853.247 162.018C854.285 162.169 855.097 162.348 855.683 162.556L854.72 169.239C853.681 169.013 852.652 168.843 851.633 168.729C850.632 168.616 849.632 168.56 848.631 168.56C847.498 168.56 846.479 168.673 845.572 168.899C844.666 169.126 843.864 169.475 843.165 169.947C842.41 170.4 841.768 170.976 841.239 171.675C840.711 172.373 840.267 173.176 839.908 174.082V193H833.14V162.357H839.483L839.767 166.605L839.795 167.313C841.041 165.595 842.533 164.245 844.27 163.264C846.025 162.282 847.961 161.791 850.075 161.791ZM862.479 177.396C862.479 175.168 862.8 173.11 863.442 171.222C864.084 169.315 865.019 167.663 866.246 166.266C867.454 164.868 868.937 163.773 870.692 162.98C872.448 162.188 874.45 161.791 876.696 161.791C878.943 161.791 880.944 162.188 882.7 162.98C884.475 163.773 885.976 164.868 887.203 166.266C888.411 167.663 889.337 169.315 889.979 171.222C890.62 173.11 890.941 175.168 890.941 177.396V177.99C890.941 180.237 890.62 182.304 889.979 184.192C889.337 186.08 888.411 187.723 887.203 189.12C885.995 190.517 884.503 191.612 882.729 192.405C880.973 193.198 878.981 193.595 876.753 193.595C874.506 193.595 872.495 193.198 870.721 192.405C868.946 191.612 867.454 190.517 866.246 189.12C865.019 187.723 864.084 186.08 863.442 184.192C862.8 182.304 862.479 180.237 862.479 177.99V177.396ZM869.248 177.99C869.248 179.368 869.39 180.671 869.673 181.898C869.975 183.126 870.438 184.202 871.061 185.127C871.665 186.052 872.439 186.788 873.383 187.336C874.327 187.865 875.45 188.129 876.753 188.129C878.018 188.129 879.122 187.865 880.066 187.336C881.01 186.788 881.785 186.052 882.389 185.127C882.993 184.202 883.437 183.126 883.72 181.898C884.022 180.671 884.173 179.368 884.173 177.99V177.396C884.173 176.055 884.022 174.771 883.72 173.544C883.418 172.317 882.974 171.241 882.389 170.315C881.766 169.39 880.982 168.654 880.038 168.106C879.113 167.559 877.999 167.285 876.696 167.285C875.412 167.285 874.299 167.559 873.354 168.106C872.429 168.654 871.665 169.39 871.061 170.315C870.438 171.241 869.975 172.317 869.673 173.544C869.39 174.771 869.248 176.055 869.248 177.396V177.99ZM897.653 177.452C897.653 175.13 897.927 173.015 898.475 171.108C899.041 169.183 899.853 167.531 900.91 166.152C901.949 164.774 903.214 163.707 904.705 162.952C906.215 162.178 907.915 161.791 909.803 161.791C911.502 161.791 912.984 162.093 914.249 162.697C915.533 163.283 916.666 164.123 917.647 165.218V149.5H924.416V193H918.271L917.959 189.8C916.977 191.008 915.807 191.943 914.447 192.604C913.088 193.245 911.521 193.566 909.746 193.566C907.877 193.566 906.197 193.179 904.705 192.405C903.214 191.612 901.949 190.517 900.91 189.12C899.872 187.742 899.069 186.109 898.503 184.221C897.937 182.314 897.653 180.256 897.653 178.047V177.452ZM904.422 178.047C904.422 179.406 904.554 180.69 904.818 181.898C905.083 183.107 905.498 184.155 906.064 185.042C906.631 185.967 907.358 186.694 908.245 187.223C909.132 187.732 910.199 187.987 911.445 187.987C912.975 187.987 914.24 187.657 915.24 186.996C916.241 186.316 917.043 185.401 917.647 184.249V171.08C917.043 169.947 916.241 169.05 915.24 168.39C914.258 167.71 913.012 167.37 911.502 167.37C910.237 167.37 909.151 167.634 908.245 168.163C907.358 168.692 906.64 169.419 906.093 170.344C905.507 171.269 905.083 172.345 904.818 173.572C904.554 174.781 904.422 176.074 904.422 177.452V178.047ZM953.473 193L953.076 188.724C952.038 190.253 950.773 191.452 949.281 192.32C947.79 193.17 946.119 193.595 944.269 193.595C942.683 193.595 941.229 193.349 939.907 192.858C938.604 192.349 937.481 191.565 936.537 190.508C935.612 189.451 934.895 188.101 934.385 186.458C933.875 184.797 933.62 182.814 933.62 180.511V162.357H940.389V180.567C940.389 181.983 940.493 183.173 940.7 184.136C940.908 185.08 941.238 185.835 941.691 186.401C942.145 186.987 942.72 187.402 943.419 187.647C944.118 187.893 944.939 188.016 945.883 188.016C946.865 188.016 947.743 187.912 948.517 187.704C949.291 187.478 949.97 187.175 950.556 186.798C951.047 186.458 951.481 186.062 951.858 185.608C952.236 185.136 952.557 184.617 952.821 184.051V162.357H959.618V193H953.473ZM981.566 188.129C982.416 188.129 983.228 188.006 984.002 187.761C984.795 187.496 985.493 187.128 986.098 186.656C986.683 186.184 987.146 185.627 987.485 184.985C987.844 184.343 988.023 183.635 988.023 182.861H994.396C994.414 184.353 994.075 185.759 993.376 187.081C992.696 188.384 991.771 189.507 990.601 190.451C989.411 191.433 988.042 192.207 986.494 192.773C984.965 193.321 983.351 193.595 981.651 193.595C979.291 193.595 977.224 193.189 975.449 192.377C973.693 191.546 972.23 190.432 971.06 189.035C969.87 187.638 968.973 186.014 968.369 184.164C967.765 182.295 967.463 180.303 967.463 178.188V177.197C967.463 175.102 967.756 173.119 968.341 171.25C968.945 169.381 969.842 167.748 971.031 166.351C972.221 164.953 973.693 163.849 975.449 163.037C977.224 162.206 979.282 161.791 981.623 161.791C983.473 161.791 985.182 162.074 986.749 162.641C988.335 163.207 989.694 164 990.827 165.02C991.96 166.039 992.838 167.257 993.461 168.673C994.103 170.089 994.414 171.646 994.396 173.346H988.023C988.023 172.515 987.863 171.731 987.542 170.995C987.24 170.259 986.806 169.617 986.239 169.069C985.654 168.522 984.955 168.088 984.144 167.767C983.351 167.446 982.492 167.285 981.566 167.285C980.15 167.285 978.97 167.578 978.026 168.163C977.101 168.729 976.365 169.475 975.817 170.4C975.232 171.326 974.817 172.383 974.571 173.572C974.345 174.762 974.231 175.97 974.231 177.197V178.188C974.231 179.435 974.345 180.662 974.571 181.87C974.817 183.06 975.223 184.107 975.789 185.014C976.337 185.958 977.082 186.713 978.026 187.279C978.97 187.846 980.15 188.129 981.566 188.129ZM1016.66 154.881V162.357H1028.18V167.427H1016.66V182.068C1016.66 183.201 1016.79 184.155 1017.05 184.929C1017.33 185.684 1017.72 186.279 1018.21 186.713C1018.7 187.166 1019.29 187.487 1019.97 187.676C1020.65 187.865 1021.39 187.959 1022.21 187.959C1022.79 187.959 1023.4 187.931 1024.02 187.874C1024.64 187.817 1025.25 187.742 1025.83 187.647C1026.4 187.572 1026.93 187.487 1027.42 187.393C1027.93 187.279 1028.35 187.185 1028.69 187.109L1029.43 191.782C1028.94 192.084 1028.34 192.349 1027.64 192.575C1026.96 192.783 1026.23 192.962 1025.43 193.113C1024.64 193.264 1023.81 193.378 1022.94 193.453C1022.09 193.548 1021.24 193.595 1020.39 193.595C1018.85 193.595 1017.42 193.387 1016.12 192.972C1014.83 192.537 1013.73 191.867 1012.8 190.961C1011.88 190.074 1011.15 188.931 1010.62 187.534C1010.11 186.137 1009.86 184.457 1009.86 182.493V167.427H1002.44V162.357H1009.86V154.881H1016.66ZM1080.63 151.766L1085.73 169.409L1091.36 151.766H1099.83V193H1093.43V179.01L1093.83 160.602L1087.48 180.284H1083.94L1078.2 161.281L1078.56 179.01V193H1072.19V151.766H1080.63ZM1127.13 193C1126.93 192.622 1126.76 192.169 1126.62 191.641C1126.51 191.093 1126.41 190.527 1126.31 189.941C1125.84 190.432 1125.3 190.904 1124.7 191.357C1124.11 191.792 1123.45 192.169 1122.71 192.49C1121.98 192.83 1121.19 193.094 1120.34 193.283C1119.49 193.472 1118.57 193.566 1117.59 193.566C1116 193.566 1114.55 193.34 1113.23 192.887C1111.92 192.415 1110.81 191.773 1109.89 190.961C1108.94 190.168 1108.21 189.215 1107.68 188.101C1107.17 186.968 1106.91 185.75 1106.91 184.447C1106.91 182.767 1107.24 181.285 1107.9 180.001C1108.58 178.698 1109.56 177.622 1110.85 176.772C1112.04 175.979 1113.5 175.375 1115.24 174.96C1116.99 174.545 1118.98 174.337 1121.19 174.337H1126.11V172.27C1126.11 171.477 1125.97 170.759 1125.69 170.117C1125.42 169.475 1125.04 168.918 1124.53 168.446C1123.98 167.974 1123.31 167.616 1122.52 167.37C1121.74 167.106 1120.85 166.974 1119.83 166.974C1118.9 166.974 1118.09 167.087 1117.39 167.313C1116.71 167.54 1116.14 167.852 1115.69 168.248C1115.24 168.607 1114.9 169.05 1114.67 169.579C1114.46 170.089 1114.36 170.636 1114.36 171.222H1107.56C1107.58 169.994 1107.88 168.814 1108.44 167.682C1109.01 166.549 1109.84 165.548 1110.93 164.68C1111.99 163.792 1113.29 163.094 1114.84 162.584C1116.41 162.055 1118.19 161.791 1120.19 161.791C1121.99 161.791 1123.66 162.018 1125.21 162.471C1126.77 162.905 1128.12 163.556 1129.26 164.425C1130.39 165.293 1131.28 166.398 1131.92 167.738C1132.56 169.06 1132.88 170.589 1132.88 172.326V185.948C1132.88 187.326 1132.98 188.573 1133.17 189.687C1133.37 190.782 1133.67 191.726 1134.04 192.519V193H1127.13ZM1118.89 188.129C1119.78 188.129 1120.6 188.016 1121.36 187.789C1122.13 187.562 1122.83 187.27 1123.45 186.911C1124.07 186.552 1124.61 186.146 1125.07 185.693C1125.52 185.24 1125.87 184.768 1126.11 184.277V178.613H1121.75C1120.28 178.613 1119 178.755 1117.93 179.038C1116.85 179.302 1115.99 179.689 1115.35 180.199C1114.79 180.633 1114.36 181.153 1114.08 181.757C1113.81 182.361 1113.68 183.041 1113.68 183.796C1113.68 184.419 1113.79 185.004 1114.02 185.552C1114.25 186.08 1114.58 186.534 1115.01 186.911C1115.45 187.289 1115.98 187.591 1116.63 187.817C1117.27 188.025 1118.02 188.129 1118.89 188.129ZM1163.58 161.791C1164.68 161.791 1165.73 161.867 1166.75 162.018C1167.79 162.169 1168.6 162.348 1169.19 162.556L1168.23 169.239C1167.19 169.013 1166.16 168.843 1165.14 168.729C1164.14 168.616 1163.14 168.56 1162.14 168.56C1161 168.56 1159.98 168.673 1159.08 168.899C1158.17 169.126 1157.37 169.475 1156.67 169.947C1155.92 170.4 1155.27 170.976 1154.75 171.675C1154.22 172.373 1153.77 173.176 1153.41 174.082V193H1146.65V162.357H1152.99L1153.27 166.605L1153.3 167.313C1154.55 165.595 1156.04 164.245 1157.78 163.264C1159.53 162.282 1161.47 161.791 1163.58 161.791ZM1187.77 179.661L1184.08 183.145V193H1177.29V149.5H1184.08V175.102L1186.89 171.986L1196.04 162.357H1204.19L1192.27 175.13L1205.92 193H1197.54L1187.77 179.661ZM1226.37 193.566C1224.1 193.566 1222.02 193.189 1220.14 192.434C1218.27 191.678 1216.66 190.631 1215.32 189.29C1213.98 187.968 1212.94 186.411 1212.21 184.617C1211.49 182.805 1211.13 180.851 1211.13 178.755V177.594C1211.13 175.196 1211.51 173.025 1212.26 171.08C1213.02 169.135 1214.06 167.474 1215.38 166.096C1216.7 164.717 1218.23 163.66 1219.97 162.924C1221.72 162.169 1223.59 161.791 1225.57 161.791C1227.78 161.791 1229.74 162.169 1231.44 162.924C1233.14 163.66 1234.56 164.689 1235.71 166.011C1236.86 167.351 1237.73 168.947 1238.32 170.797C1238.9 172.647 1239.2 174.667 1239.2 176.857V179.774H1217.96V179.916C1218.16 181.257 1218.48 182.38 1218.92 183.286C1219.35 184.192 1219.95 185.004 1220.7 185.722C1221.46 186.477 1222.35 187.062 1223.37 187.478C1224.4 187.893 1225.54 188.101 1226.76 188.101C1228.44 188.101 1230.01 187.78 1231.46 187.138C1232.92 186.477 1234.12 185.542 1235.06 184.334L1238.69 187.846C1237.67 189.318 1236.1 190.64 1233.99 191.811C1231.89 192.981 1229.35 193.566 1226.37 193.566ZM1225.55 167.285C1224.58 167.285 1223.69 167.465 1222.86 167.823C1222.04 168.163 1221.32 168.654 1220.67 169.296C1220.03 169.957 1219.49 170.75 1219.06 171.675C1218.63 172.6 1218.31 173.648 1218.1 174.818H1232.51V174.365C1232.51 173.478 1232.35 172.6 1232.03 171.731C1231.71 170.844 1231.26 170.07 1230.67 169.409C1230.11 168.767 1229.39 168.257 1228.52 167.88C1227.67 167.483 1226.68 167.285 1225.55 167.285ZM1260.49 154.881V162.357H1272.02V167.427H1260.49V182.068C1260.49 183.201 1260.63 184.155 1260.89 184.929C1261.17 185.684 1261.56 186.279 1262.05 186.713C1262.54 187.166 1263.13 187.487 1263.81 187.676C1264.49 187.865 1265.23 187.959 1266.04 187.959C1266.63 187.959 1267.23 187.931 1267.86 187.874C1268.48 187.817 1269.08 187.742 1269.67 187.647C1270.24 187.572 1270.76 187.487 1271.25 187.393C1271.76 187.279 1272.19 187.185 1272.53 187.109L1273.27 191.782C1272.77 192.084 1272.18 192.349 1271.48 192.575C1270.8 192.783 1270.07 192.962 1269.27 193.113C1268.48 193.264 1267.65 193.378 1266.78 193.453C1265.93 193.548 1265.08 193.595 1264.23 193.595C1262.68 193.595 1261.26 193.387 1259.96 192.972C1258.67 192.537 1257.57 191.867 1256.64 190.961C1255.72 190.074 1254.99 188.931 1254.46 187.534C1253.95 186.137 1253.7 184.457 1253.7 182.493V167.427H1246.28V162.357H1253.7V154.881H1260.49ZM1283.29 162.357H1299.55V187.393H1308.55V193H1283.29V187.393H1292.72V167.993H1283.29V162.357ZM1292.1 154.428C1292.1 153.88 1292.19 153.38 1292.38 152.927C1292.57 152.455 1292.84 152.049 1293.2 151.709C1293.54 151.388 1293.95 151.143 1294.42 150.973C1294.91 150.784 1295.46 150.689 1296.06 150.689C1297.08 150.689 1297.9 150.954 1298.53 151.482C1299.17 151.992 1299.54 152.653 1299.63 153.465C1299.76 154.296 1299.62 155.022 1299.21 155.646C1298.79 156.25 1298.19 156.656 1297.39 156.863C1297 157.222 1296.53 157.458 1295.98 157.571C1295.43 157.685 1294.83 157.637 1294.17 157.43C1293.49 157.222 1292.97 156.854 1292.61 156.325C1292.27 155.778 1292.1 155.145 1292.1 154.428ZM1316.57 193V162.357H1322.68L1323.11 166.719C1323.52 166.133 1323.98 165.595 1324.47 165.104C1324.98 164.595 1325.52 164.142 1326.08 163.745C1326.99 163.122 1327.98 162.641 1329.06 162.301C1330.13 161.961 1331.27 161.791 1332.46 161.791C1334.02 161.791 1335.46 162.018 1336.76 162.471C1338.06 162.924 1339.18 163.641 1340.1 164.623C1341.03 165.605 1341.74 166.86 1342.25 168.39C1342.76 169.9 1343.02 171.731 1343.02 173.884V193H1336.25V173.997C1336.25 172.732 1336.11 171.675 1335.83 170.825C1335.54 169.976 1335.13 169.296 1334.58 168.786C1334.03 168.276 1333.37 167.918 1332.6 167.71C1331.82 167.483 1330.94 167.37 1329.93 167.37C1329.1 167.37 1328.33 167.483 1327.61 167.71C1326.89 167.918 1326.24 168.22 1325.66 168.616C1325.21 168.918 1324.78 169.286 1324.38 169.721C1323.99 170.155 1323.64 170.627 1323.34 171.137V193H1316.57ZM1350.52 177.452C1350.52 175.13 1350.81 173.015 1351.37 171.108C1351.94 169.183 1352.76 167.531 1353.84 166.152C1354.91 164.774 1356.21 163.707 1357.72 162.952C1359.25 162.178 1360.96 161.791 1362.87 161.791C1364 161.791 1365.03 161.914 1365.96 162.159C1366.88 162.386 1367.72 162.726 1368.48 163.179C1368.97 163.462 1369.43 163.802 1369.87 164.198C1370.3 164.576 1370.71 164.991 1371.08 165.444L1371.37 162.357H1377.51V192.15C1377.51 194.208 1377.17 196.03 1376.49 197.616C1375.83 199.221 1374.9 200.58 1373.69 201.694C1372.46 202.789 1370.99 203.62 1369.27 204.187C1367.57 204.772 1365.69 205.064 1363.64 205.064C1362.77 205.064 1361.81 204.97 1360.78 204.781C1359.74 204.592 1358.7 204.3 1357.66 203.903C1356.62 203.507 1355.63 202.988 1354.69 202.346C1353.74 201.704 1352.93 200.93 1352.25 200.023L1355.45 195.917C1356 196.578 1356.58 197.144 1357.21 197.616C1357.85 198.107 1358.5 198.504 1359.16 198.806C1359.82 199.108 1360.49 199.325 1361.17 199.457C1361.85 199.608 1362.54 199.684 1363.24 199.684C1364.45 199.684 1365.51 199.514 1366.44 199.174C1367.38 198.834 1368.19 198.343 1368.85 197.701C1369.45 197.078 1369.91 196.313 1370.23 195.407C1370.57 194.501 1370.74 193.472 1370.74 192.32V190.196C1370.35 190.612 1369.93 190.999 1369.5 191.357C1369.08 191.716 1368.63 192.028 1368.14 192.292C1367.4 192.707 1366.59 193.019 1365.7 193.227C1364.82 193.453 1363.85 193.566 1362.81 193.566C1360.93 193.566 1359.23 193.179 1357.72 192.405C1356.21 191.612 1354.91 190.517 1353.84 189.12C1352.78 187.742 1351.96 186.109 1351.37 184.221C1350.81 182.314 1350.52 180.256 1350.52 178.047V177.452ZM1357.32 178.047C1357.32 179.406 1357.45 180.69 1357.72 181.898C1358 183.107 1358.44 184.155 1359.05 185.042C1359.63 185.967 1360.38 186.694 1361.29 187.223C1362.19 187.732 1363.27 187.987 1364.51 187.987C1365.29 187.987 1365.99 187.902 1366.61 187.732C1367.25 187.562 1367.83 187.326 1368.34 187.024C1368.85 186.703 1369.3 186.316 1369.7 185.863C1370.09 185.41 1370.44 184.91 1370.74 184.362V170.938C1370.44 170.372 1370.07 169.862 1369.64 169.409C1369.22 168.956 1368.74 168.569 1368.2 168.248C1367.7 167.984 1367.16 167.776 1366.55 167.625C1365.95 167.455 1365.29 167.37 1364.57 167.37C1363.31 167.37 1362.22 167.634 1361.31 168.163C1360.41 168.692 1359.66 169.419 1359.08 170.344C1358.47 171.269 1358.03 172.345 1357.75 173.572C1357.46 174.781 1357.32 176.074 1357.32 177.452V178.047ZM1395.5 188.922C1395.5 187.619 1395.91 186.505 1396.74 185.58C1397.59 184.655 1398.81 184.192 1400.4 184.192C1401.94 184.192 1403.15 184.655 1404.02 185.58C1404.89 186.486 1405.32 187.6 1405.32 188.922C1405.32 190.243 1404.88 191.348 1403.99 192.235C1403.12 193.123 1401.92 193.566 1400.4 193.566C1398.85 193.566 1397.64 193.123 1396.77 192.235C1395.92 191.329 1395.5 190.225 1395.5 188.922ZM1395.5 164.935C1395.5 163.632 1395.91 162.518 1396.74 161.593C1397.59 160.668 1398.81 160.205 1400.4 160.205C1401.94 160.205 1403.15 160.668 1404.02 161.593C1404.89 162.499 1405.32 163.613 1405.32 164.935C1405.32 166.256 1404.88 167.361 1403.99 168.248C1403.12 169.135 1401.92 169.579 1400.4 169.579C1398.85 169.579 1397.64 169.135 1396.77 168.248C1395.92 167.342 1395.5 166.237 1395.5 164.935Z" fill="#596855"/>
</svg>
