<svg width="1468" height="1731" viewBox="0 0 1468 1731" fill="none" xmlns="http://www.w3.org/2000/svg">
<g clip-path="url(#clip0_761_9)">
<rect width="1468" height="1731" fill="#D2EAEF"/>
<path d="M378.921 796.73C388.625 796.73 397.02 798.116 404.105 800.888C411.191 803.507 417.352 807.127 422.589 811.748V844.095C418.893 841.323 415.042 838.627 411.037 836.008C407.032 833.39 402.488 831.233 397.405 829.539C392.476 827.844 386.622 826.997 379.845 826.997C370.603 826.997 362.208 829.231 354.66 833.698C347.112 838.165 341.105 844.172 336.638 851.72C332.171 859.268 329.938 867.893 329.938 877.598C329.938 887.148 332.171 895.774 336.638 903.475C341.105 911.023 347.112 917.03 354.66 921.497C362.208 925.81 370.603 927.967 379.845 927.967C390.165 927.967 398.791 926.427 405.723 923.346C412.808 920.111 419.201 916.183 424.9 911.562V942.754C419.663 947.529 413.116 951.38 405.261 954.307C397.405 957.079 388.625 958.466 378.921 958.466C367.83 958.466 357.356 956.54 347.498 952.689C337.639 948.685 328.936 943.139 321.389 936.054C313.841 928.814 307.911 920.265 303.598 910.407C299.285 900.549 297.128 889.612 297.128 877.598C297.128 865.583 299.285 854.646 303.598 844.788C307.911 834.93 313.841 826.458 321.389 819.373C328.936 812.133 337.639 806.588 347.498 802.737C357.356 798.732 367.83 796.73 378.921 796.73ZM507.617 835.315C519.015 835.315 529.412 838.088 538.809 843.633C548.205 849.024 555.752 856.418 561.452 865.814C567.305 875.056 570.232 885.453 570.232 897.006C570.232 908.559 567.305 918.956 561.452 928.198C555.752 937.44 548.205 944.834 538.809 950.379C529.412 955.77 519.015 958.466 507.617 958.466C496.372 958.466 485.975 955.77 476.425 950.379C467.028 944.834 459.481 937.44 453.782 928.198C448.082 918.956 445.233 908.559 445.233 897.006C445.233 885.453 448.082 875.056 453.782 865.814C459.481 856.418 467.028 849.024 476.425 843.633C485.975 838.088 496.372 835.315 507.617 835.315ZM507.617 863.735C502.071 863.735 496.911 865.044 492.136 867.662C487.361 870.281 483.51 874.055 480.584 878.984C477.811 883.913 476.425 889.92 476.425 897.006C476.425 904.092 477.811 910.099 480.584 915.028C483.51 919.957 487.361 923.731 492.136 926.35C496.911 928.814 502.071 930.046 507.617 930.046C513.162 930.046 518.322 928.814 523.097 926.35C527.872 923.731 531.723 919.957 534.65 915.028C537.576 910.099 539.04 904.092 539.04 897.006C539.04 889.92 537.576 883.913 534.65 878.984C531.723 874.055 527.872 870.281 523.097 867.662C518.322 865.044 513.162 863.735 507.617 863.735ZM644.168 835.315C650.484 835.315 656.876 836.778 663.345 839.705C669.815 842.632 675.206 846.56 679.519 851.489V838.319H708.863V951.996C708.863 965.243 705.936 976.411 700.083 985.499C694.229 994.741 686.451 1001.75 676.747 1006.52C667.042 1011.45 656.414 1013.92 644.861 1013.92C634.541 1013.92 626.069 1012.38 619.446 1009.3C612.822 1006.22 606.661 1002.67 600.962 998.669V970.943C604.504 973.099 608.201 975.41 612.052 977.874C616.057 980.339 620.524 982.418 625.453 984.113C630.536 985.807 636.389 986.654 643.013 986.654C649.944 986.654 656.183 985.345 661.728 982.726C667.273 980.108 671.586 976.411 674.667 971.636C677.902 967.015 679.519 961.701 679.519 955.693V935.361C676.13 941.676 671.201 947.144 664.732 951.765C658.262 956.232 650.715 958.466 642.089 958.466C632.693 958.466 623.99 956.078 615.98 951.303C608.124 946.528 601.809 939.597 597.034 930.509C592.259 921.42 589.871 910.407 589.871 897.468C589.871 884.529 592.259 873.439 597.034 864.197C601.963 854.955 608.509 847.869 616.673 842.94C624.991 837.857 634.156 835.315 644.168 835.315ZM650.176 864.197C644.014 864.197 638.7 865.814 634.233 869.049C629.92 872.129 626.531 876.211 624.067 881.294C621.602 886.224 620.37 891.615 620.37 897.468C620.37 906.248 622.988 913.719 628.226 919.88C633.617 925.887 640.702 928.891 649.482 928.891C654.72 928.891 659.572 927.582 664.039 924.963C668.66 922.191 672.357 918.34 675.129 913.411C678.056 908.328 679.519 902.243 679.519 895.158V878.522C675.36 874.055 670.816 870.589 665.887 868.125C661.112 865.506 655.875 864.197 650.176 864.197ZM774.25 838.319V854.955C777.793 850.179 782.568 845.712 788.576 841.554C794.737 837.395 801.746 835.315 809.601 835.315C821.462 835.315 831.397 839.32 839.407 847.33C847.417 855.34 851.422 867.354 851.422 883.374V955H822.078L821.847 887.302C821.847 879.446 819.922 873.593 816.071 869.742C812.374 865.891 807.214 863.966 800.59 863.966C795.353 863.966 790.424 865.66 785.803 869.049C781.336 872.437 777.485 876.442 774.25 881.063V955H744.907V838.319H774.25ZM909.647 777.552C915.192 777.552 919.967 779.555 923.972 783.56C927.977 787.41 929.979 792.031 929.979 797.423C929.979 802.66 927.977 807.281 923.972 811.286C919.967 815.291 915.192 817.293 909.647 817.293C904.101 817.293 899.326 815.291 895.321 811.286C891.471 807.281 889.545 802.66 889.545 797.423C889.545 792.031 891.471 787.41 895.321 783.56C899.326 779.555 904.101 777.552 909.647 777.552ZM926.744 838.319V955H897.401V863.272H878.686V838.319H926.744ZM1006 804.354V838.319H1038.34V862.81H1006V913.18C1006 918.417 1007.15 922.576 1009.46 925.656C1011.93 928.583 1015.55 930.046 1020.32 930.046C1024.48 930.046 1028.02 929.584 1030.95 928.66C1034.03 927.736 1036.88 926.427 1039.5 924.732V948.068C1036.57 950.995 1032.87 953.46 1028.41 955.462C1024.09 957.465 1018.63 958.466 1012 958.466C1001.53 958.466 992.979 955.154 986.356 948.531C979.886 941.753 976.652 932.511 976.652 920.804V862.81H955.626V847.792C963.02 845.173 969.797 840.244 975.958 833.005C982.274 825.765 987.28 816.215 990.977 804.354H1006ZM1094.03 777.552C1099.57 777.552 1104.35 779.555 1108.35 783.56C1112.36 787.41 1114.36 792.031 1114.36 797.423C1114.36 802.66 1112.36 807.281 1108.35 811.286C1104.35 815.291 1099.57 817.293 1094.03 817.293C1088.48 817.293 1083.71 815.291 1079.7 811.286C1075.85 807.281 1073.92 802.66 1073.92 797.423C1073.92 792.031 1075.85 787.41 1079.7 783.56C1083.71 779.555 1088.48 777.552 1094.03 777.552ZM1111.12 838.319V955H1081.78V863.272H1063.07V838.319H1111.12ZM1260.85 838.319L1205.62 955H1186.91L1132.38 838.319H1166.58L1195.92 910.638L1226.65 838.319H1260.85ZM1326.46 835.315C1337.86 835.315 1347.64 837.78 1355.81 842.709C1364.13 847.638 1370.44 854.492 1374.75 863.272C1379.22 871.898 1381.45 881.911 1381.45 893.309V905.786H1296.89C1298.43 913.642 1302.28 919.957 1308.44 924.732C1314.6 929.507 1322.15 931.895 1331.09 931.895C1339.56 931.895 1347.26 930.2 1354.19 926.812C1361.12 923.423 1366.67 919.957 1370.83 916.414L1370.6 943.678C1366.9 946.913 1361.35 950.225 1353.96 953.614C1346.72 956.848 1338.71 958.466 1329.93 958.466C1318.38 958.466 1307.83 955.847 1298.28 950.61C1288.88 945.373 1281.33 938.21 1275.63 929.122C1270.09 920.034 1267.31 909.637 1267.31 897.93C1267.31 886.532 1269.86 876.134 1274.94 866.738C1280.02 857.342 1287.03 849.794 1295.97 844.095C1304.9 838.242 1315.07 835.315 1326.46 835.315ZM1325.77 860.962C1318.53 860.962 1312.45 863.195 1307.52 867.662C1302.59 872.129 1299.2 878.137 1297.35 885.684H1353.27C1352.65 877.367 1349.57 871.205 1344.02 867.2C1338.48 863.041 1332.39 860.962 1325.77 860.962ZM227.813 1081.5C239.827 1081.5 250.302 1083.42 259.236 1087.27C268.17 1090.97 275.101 1096.13 280.03 1102.76C285.114 1109.38 287.655 1117 287.655 1125.63C287.655 1133.33 285.576 1140.19 281.417 1146.19C277.412 1152.2 272.329 1156.82 266.167 1160.06C270.788 1161.29 275.255 1163.37 279.568 1166.29C283.881 1169.07 287.424 1172.84 290.197 1177.62C292.969 1182.24 294.356 1188.17 294.356 1195.41C294.356 1204.03 291.737 1211.97 286.5 1219.21C281.263 1226.29 273.946 1231.99 264.55 1236.3C255.154 1240.62 244.217 1242.77 231.741 1242.77C224.963 1242.77 217.646 1242.46 209.791 1241.85C201.935 1241.39 194.464 1240.69 187.379 1239.77C180.293 1238.69 174.286 1237.61 169.357 1236.53V1087.27C177.983 1085.43 187.302 1084.04 197.314 1083.12C207.326 1082.04 217.492 1081.5 227.813 1081.5ZM227.813 1110.84C217.955 1110.84 209.175 1111.61 201.473 1113.15V1150.58H230.354C238.21 1150.58 244.371 1148.66 248.838 1144.81C253.46 1140.96 255.77 1136.03 255.77 1130.02C255.77 1123.86 252.997 1119.16 247.452 1115.93C242.061 1112.54 235.514 1110.84 227.813 1110.84ZM201.473 1211.12C205.786 1212.2 210.715 1212.97 216.26 1213.43C221.959 1213.74 226.503 1213.89 229.892 1213.89C238.826 1213.89 246.143 1212.12 251.842 1208.58C257.695 1205.03 260.622 1200.03 260.622 1193.56C260.622 1187.09 257.618 1182.31 251.611 1179.23C245.604 1176 238.364 1174.38 229.892 1174.38H201.473V1211.12ZM375.917 1120.32C387.316 1120.32 397.097 1122.78 405.261 1127.71C413.578 1132.64 419.894 1139.49 424.207 1148.27C428.674 1156.9 430.907 1166.91 430.907 1178.31V1190.79H346.342C347.883 1198.64 351.734 1204.96 357.895 1209.73C364.056 1214.51 371.604 1216.89 380.538 1216.89C389.01 1216.89 396.712 1215.2 403.643 1211.81C410.575 1208.42 416.12 1204.96 420.279 1201.41L420.048 1228.68C416.351 1231.91 410.806 1235.22 403.412 1238.61C396.173 1241.85 388.163 1243.47 379.383 1243.47C367.83 1243.47 357.279 1240.85 347.729 1235.61C338.333 1230.37 330.785 1223.21 325.086 1214.12C319.54 1205.03 316.768 1194.64 316.768 1182.93C316.768 1171.53 319.309 1161.13 324.392 1151.74C329.476 1142.34 336.484 1134.79 345.418 1129.1C354.352 1123.24 364.518 1120.32 375.917 1120.32ZM375.224 1145.96C367.984 1145.96 361.9 1148.2 356.971 1152.66C352.042 1157.13 348.653 1163.14 346.804 1170.68H402.719C402.103 1162.37 399.022 1156.21 393.477 1152.2C387.932 1148.04 381.847 1145.96 375.224 1145.96ZM522.404 1120.32C534.264 1120.32 544.2 1124.32 552.209 1132.33C560.219 1140.34 564.224 1152.35 564.224 1168.37V1240H534.881L534.65 1172.3C534.65 1164.45 532.724 1158.59 528.873 1154.74C525.176 1150.89 520.016 1148.97 513.393 1148.97C508.156 1148.97 503.227 1150.66 498.605 1154.05C494.138 1157.44 490.288 1161.44 487.053 1166.06V1240H457.709V1073.64H487.053V1139.95C490.596 1135.18 495.371 1130.71 501.378 1126.55C507.539 1122.39 514.548 1120.32 522.404 1120.32ZM644.168 1120.32C650.484 1120.32 656.876 1121.78 663.345 1124.71C669.815 1127.63 675.206 1131.56 679.519 1136.49V1123.32H708.863V1240H679.519V1220.36C676.13 1226.68 671.201 1232.14 664.732 1236.77C658.262 1241.23 650.715 1243.47 642.089 1243.47C632.693 1243.47 623.99 1241.08 615.98 1236.3C608.124 1231.53 601.809 1224.6 597.034 1215.51C592.259 1206.42 589.871 1195.41 589.871 1182.47C589.871 1169.53 592.259 1158.44 597.034 1149.2C601.963 1139.95 608.509 1132.87 616.673 1127.94C624.991 1122.86 634.156 1120.32 644.168 1120.32ZM650.176 1148.97C644.014 1148.97 638.7 1150.58 634.233 1153.82C629.92 1156.9 626.531 1160.98 624.067 1166.06C621.602 1171.15 620.37 1176.61 620.37 1182.47C620.37 1191.25 622.988 1198.72 628.226 1204.88C633.617 1211.04 640.702 1214.12 649.482 1214.12C654.72 1214.12 659.572 1212.74 664.039 1209.96C668.66 1207.19 672.357 1203.34 675.129 1198.41C678.056 1193.33 679.519 1187.24 679.519 1180.16V1163.52C675.36 1159.05 670.816 1155.51 665.887 1152.89C661.112 1150.27 655.875 1148.97 650.176 1148.97ZM856.505 1123.32L801.283 1240H782.568L728.04 1123.32H762.236L791.579 1195.64L822.309 1123.32H856.505ZM901.329 1062.55C906.874 1062.55 911.649 1064.55 915.654 1068.56C919.659 1072.41 921.662 1077.03 921.662 1082.42C921.662 1087.66 919.659 1092.28 915.654 1096.29C911.649 1100.29 906.874 1102.29 901.329 1102.29C895.784 1102.29 891.009 1100.29 887.004 1096.29C883.153 1092.28 881.227 1087.66 881.227 1082.42C881.227 1077.03 883.153 1072.41 887.004 1068.56C891.009 1064.55 895.784 1062.55 901.329 1062.55ZM918.427 1123.32V1240H889.083V1148.27H870.368V1123.32H918.427ZM1009.69 1120.32C1021.09 1120.32 1031.49 1123.09 1040.88 1128.63C1050.28 1134.02 1057.83 1141.42 1063.53 1150.81C1069.38 1160.06 1072.31 1170.45 1072.31 1182.01C1072.31 1193.56 1069.38 1203.96 1063.53 1213.2C1057.83 1222.44 1050.28 1229.83 1040.88 1235.38C1031.49 1240.77 1021.09 1243.47 1009.69 1243.47C998.448 1243.47 988.05 1240.77 978.5 1235.38C969.104 1229.83 961.556 1222.44 955.857 1213.2C950.158 1203.96 947.308 1193.56 947.308 1182.01C947.308 1170.45 950.158 1160.06 955.857 1150.81C961.556 1141.42 969.104 1134.02 978.5 1128.63C988.05 1123.09 998.448 1120.32 1009.69 1120.32ZM1009.69 1148.73C1004.15 1148.73 998.987 1150.04 994.212 1152.66C989.437 1155.28 985.586 1159.05 982.659 1163.98C979.887 1168.91 978.5 1174.92 978.5 1182.01C978.5 1189.09 979.887 1195.1 982.659 1200.03C985.586 1204.96 989.437 1208.73 994.212 1211.35C998.987 1213.81 1004.15 1215.05 1009.69 1215.05C1015.24 1215.05 1020.4 1213.81 1025.17 1211.35C1029.95 1208.73 1033.8 1204.96 1036.73 1200.03C1039.65 1195.1 1041.12 1189.09 1041.12 1182.01C1041.12 1174.92 1039.65 1168.91 1036.73 1163.98C1033.8 1159.05 1029.95 1155.28 1025.17 1152.66C1020.4 1150.04 1015.24 1148.73 1009.69 1148.73ZM1173.51 1156.13C1168.58 1153.36 1163.42 1151.97 1158.03 1151.97C1151.25 1151.97 1145.63 1154.2 1141.16 1158.67C1136.69 1162.98 1132.77 1168.37 1129.38 1174.84V1240H1100.03V1123.32H1129.38V1145.27C1133.38 1138.34 1138.08 1132.56 1143.47 1127.94C1149.02 1123.32 1155.25 1121.01 1162.19 1121.01C1166.35 1121.01 1170.12 1121.7 1173.51 1123.09V1156.13ZM1242.36 1120.32C1248.68 1120.32 1255.07 1121.78 1261.54 1124.71C1268.01 1127.63 1273.4 1131.56 1277.71 1136.49V1123.32H1307.06V1240H1277.71V1220.36C1274.32 1226.68 1269.39 1232.14 1262.92 1236.77C1256.46 1241.23 1248.91 1243.47 1240.28 1243.47C1230.89 1243.47 1222.18 1241.08 1214.17 1236.3C1206.32 1231.53 1200 1224.6 1195.23 1215.51C1190.45 1206.42 1188.06 1195.41 1188.06 1182.47C1188.06 1169.53 1190.45 1158.44 1195.23 1149.2C1200.16 1139.95 1206.7 1132.87 1214.87 1127.94C1223.18 1122.86 1232.35 1120.32 1242.36 1120.32ZM1248.37 1148.97C1242.21 1148.97 1236.89 1150.58 1232.43 1153.82C1228.11 1156.9 1224.72 1160.98 1222.26 1166.06C1219.8 1171.15 1218.56 1176.61 1218.56 1182.47C1218.56 1191.25 1221.18 1198.72 1226.42 1204.88C1231.81 1211.04 1238.9 1214.12 1247.68 1214.12C1252.91 1214.12 1257.76 1212.74 1262.23 1209.96C1266.85 1207.19 1270.55 1203.34 1273.32 1198.41C1276.25 1193.33 1277.71 1187.24 1277.71 1180.16V1163.52C1273.55 1159.05 1269.01 1155.51 1264.08 1152.89C1259.31 1150.27 1254.07 1148.97 1248.37 1148.97ZM1372.44 1073.64V1240H1343.1V1073.64H1372.44ZM582.94 1370.2V1399.08H533.495V1524.31H501.609V1399.08H452.164V1370.2H582.94ZM671.895 1405.32C683.755 1405.32 693.69 1409.32 701.7 1417.33C709.71 1425.34 713.715 1437.35 713.715 1453.37V1525H684.371L684.14 1457.3C684.14 1449.45 682.215 1443.59 678.364 1439.74C674.667 1435.89 669.507 1433.97 662.884 1433.97C657.646 1433.97 652.717 1435.66 648.096 1439.05C643.629 1442.44 639.778 1446.44 636.544 1451.06V1525H607.2V1358.64H636.544V1424.95C640.086 1420.18 644.861 1415.71 650.869 1411.55C657.03 1407.39 664.039 1405.32 671.895 1405.32ZM798.511 1405.32C809.91 1405.32 819.691 1407.78 827.855 1412.71C836.172 1417.64 842.488 1424.49 846.801 1433.27C851.268 1441.9 853.501 1451.91 853.501 1463.31V1475.79H768.936C770.477 1483.64 774.328 1489.96 780.489 1494.73C786.65 1499.51 794.198 1501.89 803.132 1501.89C811.604 1501.89 819.306 1500.2 826.237 1496.81C833.169 1493.42 838.714 1489.96 842.873 1486.41L842.642 1513.68C838.945 1516.91 833.4 1520.22 826.006 1523.61C818.767 1526.85 810.757 1528.47 801.977 1528.47C790.424 1528.47 779.873 1525.85 770.323 1520.61C760.927 1515.37 753.379 1508.21 747.68 1499.12C742.134 1490.03 739.362 1479.64 739.362 1467.93C739.362 1456.53 741.903 1446.13 746.986 1436.74C752.07 1427.34 759.078 1419.79 768.012 1414.1C776.946 1408.24 787.112 1405.32 798.511 1405.32ZM797.818 1430.96C790.578 1430.96 784.494 1433.2 779.565 1437.66C774.636 1442.13 771.247 1448.14 769.398 1455.68H825.313C824.697 1447.37 821.616 1441.21 816.071 1437.2C810.526 1433.04 804.441 1430.96 797.818 1430.96ZM953.778 1441.13C948.849 1438.36 943.689 1436.97 938.297 1436.97C931.52 1436.97 925.898 1439.2 921.431 1443.67C916.964 1447.98 913.036 1453.37 909.647 1459.84V1525H880.303V1408.32H909.647V1430.27C913.652 1423.34 918.35 1417.56 923.741 1412.94C929.286 1408.32 935.525 1406.01 942.456 1406.01C946.615 1406.01 950.389 1406.7 953.778 1408.09V1441.13ZM1022.63 1405.32C1028.95 1405.32 1035.34 1406.78 1041.81 1409.71C1048.28 1412.63 1053.67 1416.56 1057.98 1421.49V1408.32H1087.33V1525H1057.98V1505.36C1054.59 1511.68 1049.66 1517.14 1043.19 1521.77C1036.73 1526.23 1029.18 1528.47 1020.55 1528.47C1011.16 1528.47 1002.45 1526.08 994.443 1521.3C986.587 1516.53 980.272 1509.6 975.497 1500.51C970.722 1491.42 968.334 1480.41 968.334 1467.47C968.334 1454.53 970.722 1443.44 975.497 1434.2C980.426 1424.95 986.972 1417.87 995.136 1412.94C1003.45 1407.86 1012.62 1405.32 1022.63 1405.32ZM1028.64 1433.97C1022.48 1433.97 1017.16 1435.58 1012.7 1438.82C1008.38 1441.9 1004.99 1445.98 1002.53 1451.06C1000.07 1456.15 998.833 1461.61 998.833 1467.47C998.833 1476.25 1001.45 1483.72 1006.69 1489.88C1012.08 1496.04 1019.17 1499.12 1027.95 1499.12C1033.18 1499.12 1038.03 1497.74 1042.5 1494.96C1047.12 1492.19 1050.82 1488.34 1053.59 1483.41C1056.52 1478.33 1057.98 1472.24 1057.98 1465.16V1448.52C1053.82 1444.05 1049.28 1440.51 1044.35 1437.89C1039.58 1435.27 1034.34 1433.97 1028.64 1433.97ZM1190.14 1405.32C1199.39 1405.32 1207.93 1407.7 1215.79 1412.48C1223.8 1417.1 1230.19 1423.95 1234.97 1433.04C1239.9 1441.98 1242.36 1452.91 1242.36 1465.85C1242.36 1478.79 1239.9 1489.96 1234.97 1499.35C1230.19 1508.75 1223.65 1515.99 1215.33 1521.07C1207.16 1526 1198.08 1528.47 1188.06 1528.47C1181.59 1528.47 1175.13 1526.93 1168.66 1523.84C1162.34 1520.61 1157.03 1516.61 1152.71 1511.83V1580.45H1123.37V1408.32H1152.71V1427.96C1156.1 1421.64 1161.03 1416.33 1167.5 1412.02C1173.97 1407.55 1181.52 1405.32 1190.14 1405.32ZM1182.75 1434.66C1177.51 1434.66 1172.58 1436.05 1167.96 1438.82C1163.34 1441.44 1159.57 1445.21 1156.64 1450.14C1153.87 1455.07 1152.56 1461 1152.71 1467.93V1484.8C1156.87 1489.11 1161.34 1492.73 1166.11 1495.66C1171.04 1498.43 1176.36 1499.82 1182.06 1499.82C1188.06 1499.82 1193.3 1498.2 1197.77 1494.96C1202.24 1491.73 1205.7 1487.57 1208.17 1482.49C1210.63 1477.25 1211.86 1471.7 1211.86 1465.85C1211.86 1457.07 1209.17 1449.68 1203.78 1443.67C1198.54 1437.66 1191.53 1434.66 1182.75 1434.66ZM1288.8 1408.32L1322.07 1482.72L1354.42 1408.32H1387.92L1303.13 1580.45H1269.86L1304.98 1516.45L1254.61 1408.32H1288.8Z" fill="#2F565B"/>
<path d="M1349.86 240.451H1130.18C1119.23 240.451 1108.91 235.034 1103.94 225.276C1093.6 204.971 1080.58 169.707 1104.63 154.05C1130.43 137.253 1167.55 154.05 1167.55 154.05C1167.55 154.05 1164.87 80.3982 1250.54 87.4798C1336.22 94.5614 1317.48 154.05 1317.48 154.05C1317.48 154.05 1356.3 142.719 1373.7 154.05C1402.15 172.577 1386.26 208.219 1374.57 227.427C1369.38 235.961 1359.85 240.451 1349.86 240.451Z" fill="#3B6468" stroke="#3B6468" stroke-width="2.74019"/>
</g>
<defs>
<clipPath id="clip0_761_9">
<rect width="1468" height="1731" fill="white"/>
</clipPath>
</defs>
</svg>
