<svg width="1468" height="1731" viewBox="0 0 1468 1731" fill="none" xmlns="http://www.w3.org/2000/svg">
<rect width="1468" height="1731" fill="#D2EAEF"/>
<path d="M270.874 1282.99V1440H238.541V1345.09L198.532 1388.83H189.227L148.753 1345.09V1440H116.42V1282.99H127.352L193.879 1352.31L259.941 1282.99H270.874ZM363.686 1319.51C375.161 1319.51 385.008 1321.99 393.227 1326.95C401.601 1331.91 407.959 1338.81 412.301 1347.65C416.799 1356.34 419.047 1366.42 419.047 1377.89V1390.45H333.911C335.462 1398.36 339.339 1404.72 345.542 1409.53C351.745 1414.34 359.344 1416.74 368.338 1416.74C376.867 1416.74 384.621 1415.03 391.599 1411.62C398.577 1408.21 404.16 1404.72 408.347 1401.15L408.114 1428.6C404.393 1431.86 398.81 1435.19 391.366 1438.6C384.078 1441.86 376.014 1443.49 367.175 1443.49C355.544 1443.49 344.922 1440.85 335.307 1435.58C325.848 1430.31 318.249 1423.1 312.511 1413.95C306.929 1404.8 304.137 1394.33 304.137 1382.54C304.137 1371.07 306.696 1360.6 311.813 1351.14C316.931 1341.68 323.987 1334.08 332.981 1328.35C341.975 1322.45 352.21 1319.51 363.686 1319.51ZM362.988 1345.33C355.699 1345.33 349.574 1347.58 344.612 1352.07C339.649 1356.57 336.238 1362.62 334.377 1370.22H390.669C390.048 1361.84 386.947 1355.64 381.364 1351.61C375.781 1347.42 369.656 1345.33 362.988 1345.33ZM557.684 1272.52V1440H528.142V1420.23C524.73 1426.59 519.768 1432.09 513.255 1436.74C506.742 1441.24 499.143 1443.49 490.459 1443.49C480.999 1443.49 472.238 1441.09 464.174 1436.28C456.265 1431.47 449.907 1424.49 445.1 1415.34C440.292 1406.19 437.889 1395.11 437.889 1382.08C437.889 1369.05 440.292 1357.89 445.1 1348.58C450.062 1339.28 456.653 1332.15 464.872 1327.18C473.246 1322.07 482.473 1319.51 492.552 1319.51C498.911 1319.51 505.346 1320.98 511.859 1323.93C518.372 1326.87 523.8 1330.83 528.142 1335.79V1272.52H557.684ZM498.6 1348.58C492.397 1348.58 487.047 1350.21 482.55 1353.47C478.208 1356.57 474.796 1360.68 472.315 1365.8C469.834 1370.76 468.593 1376.19 468.593 1382.08C468.593 1390.92 471.23 1398.44 476.502 1404.64C481.93 1410.85 489.063 1413.95 497.903 1413.95C503.175 1413.95 508.06 1412.55 512.557 1409.76C517.209 1406.97 520.931 1403.09 523.722 1398.13C526.669 1393.01 528.142 1386.89 528.142 1379.75V1363.01C523.955 1358.51 519.38 1355.02 514.418 1352.54C509.611 1349.9 504.338 1348.58 498.6 1348.58ZM618.628 1261.35C624.211 1261.35 629.018 1263.37 633.05 1267.4C637.082 1271.28 639.098 1275.93 639.098 1281.36C639.098 1286.63 637.082 1291.28 633.05 1295.32C629.018 1299.35 624.211 1301.36 618.628 1301.36C613.045 1301.36 608.238 1299.35 604.206 1295.32C600.329 1291.28 598.391 1286.63 598.391 1281.36C598.391 1275.93 600.329 1271.28 604.206 1267.4C608.238 1263.37 613.045 1261.35 618.628 1261.35ZM635.841 1322.53V1440H606.299V1347.65H587.458V1322.53H635.841ZM726.56 1319.51C735.244 1319.51 742.377 1320.9 747.96 1323.69C753.542 1326.49 757.962 1329.2 761.219 1331.84V1359.05C757.187 1356.1 752.612 1353.62 747.495 1351.61C742.532 1349.59 736.407 1348.58 729.118 1348.58C723.225 1348.58 717.72 1350.06 712.603 1353C707.64 1355.95 703.686 1359.9 700.74 1364.87C697.793 1369.83 696.32 1375.49 696.32 1381.85C696.32 1391.46 699.422 1399.37 705.625 1405.57C711.827 1411.78 719.659 1414.88 729.118 1414.88C736.407 1414.88 742.532 1413.95 747.495 1412.09C752.612 1410.07 757.187 1407.59 761.219 1404.64V1431.63C757.962 1434.42 753.542 1437.13 747.96 1439.77C742.377 1442.25 735.244 1443.49 726.56 1443.49C714.619 1443.49 703.996 1440.7 694.692 1435.12C685.542 1429.38 678.254 1421.86 672.826 1412.55C667.554 1403.09 664.918 1392.86 664.918 1381.85C664.918 1373.63 666.391 1365.8 669.337 1358.35C672.439 1350.91 676.781 1344.32 682.363 1338.58C687.946 1332.69 694.459 1328.04 701.903 1324.62C709.501 1321.21 717.72 1319.51 726.56 1319.51ZM834.026 1319.51C840.384 1319.51 846.82 1320.98 853.333 1323.93C859.846 1326.87 865.274 1330.83 869.616 1335.79V1322.53H899.157V1440H869.616V1420.23C866.204 1426.59 861.242 1432.09 854.729 1436.74C848.215 1441.24 840.617 1443.49 831.933 1443.49C822.473 1443.49 813.711 1441.09 805.647 1436.28C797.739 1431.47 791.381 1424.49 786.573 1415.34C781.766 1406.19 779.362 1395.11 779.362 1382.08C779.362 1369.05 781.766 1357.89 786.573 1348.58C791.536 1339.28 798.126 1332.15 806.345 1327.18C814.719 1322.07 823.946 1319.51 834.026 1319.51ZM840.074 1348.35C833.871 1348.35 828.521 1349.98 824.024 1353.24C819.682 1356.34 816.27 1360.45 813.789 1365.56C811.308 1370.68 810.067 1376.19 810.067 1382.08C810.067 1390.92 812.703 1398.44 817.976 1404.64C823.404 1410.85 830.537 1413.95 839.376 1413.95C844.649 1413.95 849.534 1412.55 854.031 1409.76C858.683 1406.97 862.405 1403.09 865.196 1398.13C868.142 1393.01 869.616 1386.89 869.616 1379.75V1363.01C865.429 1358.51 860.854 1354.94 855.892 1352.31C851.084 1349.67 845.812 1348.35 840.074 1348.35ZM978.013 1288.34V1322.53H1010.58V1347.19H978.013V1397.9C978.013 1403.17 979.176 1407.36 981.502 1410.46C983.983 1413.4 987.627 1414.88 992.434 1414.88C996.621 1414.88 1000.19 1414.41 1003.13 1413.48C1006.24 1412.55 1009.1 1411.23 1011.74 1409.53V1433.02C1008.79 1435.97 1005.07 1438.45 1000.58 1440.47C996.234 1442.48 990.729 1443.49 984.06 1443.49C973.515 1443.49 964.909 1440.16 958.241 1433.49C951.727 1426.66 948.471 1417.36 948.471 1405.57V1347.19H927.303V1332.07C934.747 1329.43 941.57 1324.47 947.773 1317.18C954.131 1309.89 959.171 1300.28 962.893 1288.34H978.013ZM1066.64 1261.35C1072.22 1261.35 1077.03 1263.37 1081.06 1267.4C1085.09 1271.28 1087.11 1275.93 1087.11 1281.36C1087.11 1286.63 1085.09 1291.28 1081.06 1295.32C1077.03 1299.35 1072.22 1301.36 1066.64 1301.36C1061.05 1301.36 1056.25 1299.35 1052.22 1295.32C1048.34 1291.28 1046.4 1286.63 1046.4 1281.36C1046.4 1275.93 1048.34 1271.28 1052.22 1267.4C1056.25 1263.37 1061.05 1261.35 1066.64 1261.35ZM1083.85 1322.53V1440H1054.31V1347.65H1035.47V1322.53H1083.85ZM1175.73 1319.51C1187.21 1319.51 1197.68 1322.3 1207.13 1327.88C1216.59 1333.31 1224.19 1340.75 1229.93 1350.21C1235.82 1359.52 1238.77 1369.98 1238.77 1381.61C1238.77 1393.25 1235.82 1403.71 1229.93 1413.02C1224.19 1422.32 1216.59 1429.77 1207.13 1435.35C1197.68 1440.78 1187.21 1443.49 1175.73 1443.49C1164.41 1443.49 1153.94 1440.78 1144.33 1435.35C1134.87 1429.77 1127.27 1422.32 1121.53 1413.02C1115.8 1403.71 1112.93 1393.25 1112.93 1381.61C1112.93 1369.98 1115.8 1359.52 1121.53 1350.21C1127.27 1340.75 1134.87 1333.31 1144.33 1327.88C1153.94 1322.3 1164.41 1319.51 1175.73 1319.51ZM1175.73 1348.12C1170.15 1348.12 1164.95 1349.44 1160.15 1352.07C1155.34 1354.71 1151.46 1358.51 1148.52 1363.47C1145.73 1368.43 1144.33 1374.48 1144.33 1381.61C1144.33 1388.75 1145.73 1394.8 1148.52 1399.76C1151.46 1404.72 1155.34 1408.52 1160.15 1411.16C1164.95 1413.64 1170.15 1414.88 1175.73 1414.88C1181.31 1414.88 1186.51 1413.64 1191.32 1411.16C1196.12 1408.52 1200 1404.72 1202.95 1399.76C1205.89 1394.8 1207.37 1388.75 1207.37 1381.61C1207.37 1374.48 1205.89 1368.43 1202.95 1363.47C1200 1358.51 1196.12 1354.71 1191.32 1352.07C1186.51 1349.44 1181.31 1348.12 1175.73 1348.12ZM1296.23 1322.53V1339.28C1299.79 1334.47 1304.6 1329.97 1310.65 1325.79C1316.85 1321.6 1323.91 1319.51 1331.81 1319.51C1343.76 1319.51 1353.76 1323.54 1361.82 1331.6C1369.89 1339.67 1373.92 1351.76 1373.92 1367.89V1440H1344.38L1344.14 1371.84C1344.14 1363.94 1342.2 1358.04 1338.33 1354.17C1334.61 1350.29 1329.41 1348.35 1322.74 1348.35C1317.47 1348.35 1312.51 1350.06 1307.86 1353.47C1303.36 1356.88 1299.48 1360.91 1296.23 1365.56V1440H1266.68V1322.53H1296.23Z" fill="#2F565B"/>
<path d="M1349.86 240.451H1130.18C1119.23 240.451 1108.91 235.034 1103.94 225.276C1093.6 204.971 1080.58 169.707 1104.63 154.05C1130.43 137.253 1167.55 154.05 1167.55 154.05C1167.55 154.05 1164.87 80.3982 1250.54 87.4798C1336.22 94.5614 1317.48 154.05 1317.48 154.05C1317.48 154.05 1356.3 142.719 1373.7 154.05C1402.15 172.577 1386.26 208.219 1374.57 227.427C1369.38 235.961 1359.85 240.451 1349.86 240.451Z" fill="#3B6468" stroke="#3B6468" stroke-width="2.74019"/>
</svg>
