<svg width="1468" height="1731" viewBox="0 0 1468 1731" fill="none" xmlns="http://www.w3.org/2000/svg">
<rect width="1468" height="1731" fill="#D2EAEF"/>
<path d="M551.744 1082.19C560.678 1082.19 568.842 1083.42 576.235 1085.89C583.629 1088.35 589.868 1091.2 594.951 1094.44V1126.09C589.405 1122.7 583.475 1119.54 577.16 1116.62C570.844 1113.69 563.682 1112.23 555.672 1112.23C551.667 1112.23 547.662 1112.84 543.657 1114.08C539.806 1115.31 536.572 1117.16 533.953 1119.62C531.488 1122.09 530.256 1125.24 530.256 1129.1C530.256 1134.18 532.49 1138.03 536.957 1140.65C541.424 1143.27 546.892 1145.88 553.361 1148.5L572.308 1156.36C583.09 1160.98 591.023 1166.6 596.106 1173.23C601.189 1179.85 603.731 1187.4 603.731 1195.87C603.731 1205.11 601.035 1213.28 595.644 1220.36C590.407 1227.29 583.321 1232.76 574.387 1236.77C565.607 1240.77 555.826 1242.77 545.043 1242.77C535.955 1242.77 527.252 1241.23 518.935 1238.15C510.617 1235.07 503.377 1231.3 497.216 1226.83V1195.18C503.993 1200.11 511.464 1204.26 519.628 1207.65C527.792 1211.04 536.495 1212.74 545.737 1212.74C552.206 1212.74 557.751 1211.5 562.372 1209.04C566.993 1206.42 569.304 1202.57 569.304 1197.49C569.304 1193.48 567.378 1190.25 563.528 1187.78C559.831 1185.16 555.749 1183.01 551.282 1181.31L527.484 1172.07C515.469 1167.45 507.305 1161.44 502.992 1154.05C498.833 1146.5 496.754 1138.18 496.754 1129.1C496.754 1119.7 499.295 1111.54 504.378 1104.6C509.616 1097.52 516.393 1092.05 524.711 1088.2C533.029 1084.19 542.04 1082.19 551.744 1082.19ZM734.044 1123.32V1192.87C734.044 1203.19 731.733 1212.12 727.112 1219.67C722.491 1227.06 716.176 1232.76 708.166 1236.77C700.31 1240.77 691.376 1242.77 681.364 1242.77C671.198 1242.77 662.11 1240.77 654.1 1236.77C646.244 1232.76 640.006 1227.06 635.385 1219.67C630.918 1212.12 628.684 1203.19 628.684 1192.87V1123.32H658.259L658.49 1187.55C658.49 1196.64 660.569 1203.42 664.728 1207.88C668.887 1212.35 674.433 1214.58 681.364 1214.58C688.142 1214.58 693.61 1212.35 697.769 1207.88C702.082 1203.42 704.238 1196.64 704.238 1187.55V1123.32H734.044ZM834.32 1120.32C843.562 1120.32 852.111 1122.7 859.967 1127.48C867.977 1132.1 874.369 1138.95 879.144 1148.04C884.074 1156.98 886.538 1167.91 886.538 1180.85C886.538 1193.79 884.074 1204.96 879.144 1214.35C874.369 1223.75 867.823 1230.99 859.505 1236.07C851.341 1241 842.253 1243.47 832.241 1243.47C825.771 1243.47 819.302 1241.93 812.833 1238.84C806.517 1235.61 801.203 1231.61 796.89 1226.83V1295.45H767.546V1123.32H796.89V1142.96C800.279 1136.64 805.208 1131.33 811.677 1127.02C818.147 1122.55 825.694 1120.32 834.32 1120.32ZM826.927 1149.66C821.69 1149.66 816.76 1151.05 812.139 1153.82C807.518 1156.44 803.745 1160.21 800.818 1165.14C798.045 1170.07 796.736 1176 796.89 1182.93V1199.8C801.049 1204.11 805.516 1207.73 810.291 1210.66C815.22 1213.43 820.534 1214.82 826.234 1214.82C832.241 1214.82 837.478 1213.2 841.945 1209.96C846.412 1206.73 849.878 1202.57 852.342 1197.49C854.807 1192.25 856.039 1186.7 856.039 1180.85C856.039 1172.07 853.344 1164.68 847.952 1158.67C842.715 1152.66 835.707 1149.66 826.927 1149.66ZM981.269 1120.32C990.511 1120.32 999.06 1122.7 1006.92 1127.48C1014.93 1132.1 1021.32 1138.95 1026.09 1148.04C1031.02 1156.98 1033.49 1167.91 1033.49 1180.85C1033.49 1193.79 1031.02 1204.96 1026.09 1214.35C1021.32 1223.75 1014.77 1230.99 1006.45 1236.07C998.29 1241 989.202 1243.47 979.19 1243.47C972.72 1243.47 966.251 1241.93 959.781 1238.84C953.466 1235.61 948.152 1231.61 943.839 1226.83V1295.45H914.495V1123.32H943.839V1142.96C947.228 1136.64 952.157 1131.33 958.626 1127.02C965.096 1122.55 972.643 1120.32 981.269 1120.32ZM973.876 1149.66C968.638 1149.66 963.709 1151.05 959.088 1153.82C954.467 1156.44 950.693 1160.21 947.767 1165.14C944.994 1170.07 943.685 1176 943.839 1182.93V1199.8C947.998 1204.11 952.465 1207.73 957.24 1210.66C962.169 1213.43 967.483 1214.82 973.182 1214.82C979.19 1214.82 984.427 1213.2 988.894 1209.96C993.361 1206.73 996.827 1202.57 999.291 1197.49C1001.76 1192.25 1002.99 1186.7 1002.99 1180.85C1002.99 1172.07 1000.29 1164.68 994.901 1158.67C989.664 1152.66 982.656 1149.66 973.876 1149.66ZM1115.74 1120.32C1127.14 1120.32 1137.54 1123.09 1146.93 1128.63C1156.33 1134.02 1163.88 1141.42 1169.58 1150.81C1175.43 1160.06 1178.36 1170.45 1178.36 1182.01C1178.36 1193.56 1175.43 1203.96 1169.58 1213.2C1163.88 1222.44 1156.33 1229.83 1146.93 1235.38C1137.54 1240.77 1127.14 1243.47 1115.74 1243.47C1104.5 1243.47 1094.1 1240.77 1084.55 1235.38C1075.15 1229.83 1067.61 1222.44 1061.91 1213.2C1056.21 1203.96 1053.36 1193.56 1053.36 1182.01C1053.36 1170.45 1056.21 1160.06 1061.91 1150.81C1067.61 1141.42 1075.15 1134.02 1084.55 1128.63C1094.1 1123.09 1104.5 1120.32 1115.74 1120.32ZM1115.74 1148.73C1110.2 1148.73 1105.04 1150.04 1100.26 1152.66C1095.49 1155.28 1091.64 1159.05 1088.71 1163.98C1085.94 1168.91 1084.55 1174.92 1084.55 1182.01C1084.55 1189.09 1085.94 1195.1 1088.71 1200.03C1091.64 1204.96 1095.49 1208.73 1100.26 1211.35C1105.04 1213.81 1110.2 1215.05 1115.74 1215.05C1121.29 1215.05 1126.45 1213.81 1131.22 1211.35C1136 1208.73 1139.85 1204.96 1142.77 1200.03C1145.7 1195.1 1147.16 1189.09 1147.16 1182.01C1147.16 1174.92 1145.7 1168.91 1142.77 1163.98C1139.85 1159.05 1136 1155.28 1131.22 1152.66C1126.45 1150.04 1121.29 1148.73 1115.74 1148.73ZM1279.56 1156.13C1274.63 1153.36 1269.47 1151.97 1264.08 1151.97C1257.3 1151.97 1251.68 1154.2 1247.21 1158.67C1242.74 1162.98 1238.82 1168.37 1235.43 1174.84V1240H1206.08V1123.32H1235.43V1145.27C1239.43 1138.34 1244.13 1132.56 1249.52 1127.94C1255.07 1123.32 1261.3 1121.01 1268.24 1121.01C1272.39 1121.01 1276.17 1121.7 1279.56 1123.09V1156.13ZM1344.48 1089.35V1123.32H1376.83V1147.81H1344.48V1198.18C1344.48 1203.42 1345.64 1207.58 1347.95 1210.66C1350.41 1213.58 1354.03 1215.05 1358.81 1215.05C1362.97 1215.05 1366.51 1214.58 1369.44 1213.66C1372.52 1212.74 1375.37 1211.43 1377.99 1209.73V1233.07C1375.06 1236 1371.36 1238.46 1366.89 1240.46C1362.58 1242.46 1357.11 1243.47 1350.49 1243.47C1340.02 1243.47 1331.47 1240.15 1324.84 1233.53C1318.37 1226.75 1315.14 1217.51 1315.14 1205.8V1147.81H1294.11V1132.79C1301.51 1130.17 1308.28 1125.24 1314.45 1118C1320.76 1110.77 1325.77 1101.21 1329.46 1089.35H1344.48ZM698.924 1441.13H751.604V1504.21C745.134 1510.98 736.894 1516.76 726.881 1521.53C717.023 1526.16 705.856 1528.47 693.379 1528.47C682.288 1528.47 671.814 1526.54 661.956 1522.69C652.098 1518.68 643.395 1513.14 635.847 1506.05C628.299 1498.81 622.369 1490.27 618.056 1480.41C613.743 1470.55 611.586 1459.61 611.586 1447.6C611.586 1435.58 613.743 1424.65 618.056 1414.79C622.369 1404.93 628.299 1396.46 635.847 1389.37C643.395 1382.13 652.098 1376.59 661.956 1372.74C671.814 1368.73 682.288 1366.73 693.379 1366.73C703.083 1366.73 711.478 1368.12 718.563 1370.89C725.649 1373.51 731.81 1377.13 737.048 1381.75V1414.1C733.351 1411.32 729.5 1408.63 725.495 1406.01C721.49 1403.39 716.946 1401.23 711.863 1399.54C706.934 1397.84 701.08 1397 694.303 1397C685.061 1397 676.666 1399.23 669.118 1403.7C661.571 1408.16 655.563 1414.17 651.096 1421.72C646.629 1429.27 644.396 1437.89 644.396 1447.6C644.396 1457.15 646.629 1465.77 651.096 1473.48C655.563 1481.02 661.571 1487.03 669.118 1491.5C676.666 1495.81 685.061 1497.97 694.303 1497.97C701.389 1497.97 707.088 1497.12 711.401 1495.43C715.714 1493.73 719.103 1491.88 721.567 1489.88L721.798 1464.23H698.924V1441.13ZM855.115 1441.13C850.186 1438.36 845.026 1436.97 839.635 1436.97C832.857 1436.97 827.235 1439.2 822.768 1443.67C818.301 1447.98 814.373 1453.37 810.984 1459.84V1525H781.641V1408.32H810.984V1430.27C814.989 1423.34 819.687 1417.56 825.078 1412.94C830.624 1408.32 836.862 1406.01 843.794 1406.01C847.952 1406.01 851.726 1406.7 855.115 1408.09V1441.13ZM932.055 1405.32C943.454 1405.32 953.851 1408.09 963.247 1413.63C972.643 1419.02 980.191 1426.42 985.89 1435.81C991.744 1445.06 994.67 1455.45 994.67 1467.01C994.67 1478.56 991.744 1488.96 985.89 1498.2C980.191 1507.44 972.643 1514.83 963.247 1520.38C953.851 1525.77 943.454 1528.47 932.055 1528.47C920.811 1528.47 910.413 1525.77 900.863 1520.38C891.467 1514.83 883.92 1507.44 878.22 1498.2C872.521 1488.96 869.671 1478.56 869.671 1467.01C869.671 1455.45 872.521 1445.06 878.22 1435.81C883.92 1426.42 891.467 1419.02 900.863 1413.63C910.413 1408.09 920.811 1405.32 932.055 1405.32ZM932.055 1433.73C926.51 1433.73 921.35 1435.04 916.575 1437.66C911.8 1440.28 907.949 1444.05 905.022 1448.98C902.25 1453.91 900.863 1459.92 900.863 1467.01C900.863 1474.09 902.25 1480.1 905.022 1485.03C907.949 1489.96 911.8 1493.73 916.575 1496.35C921.35 1498.81 926.51 1500.05 932.055 1500.05C937.601 1500.05 942.761 1498.81 947.536 1496.35C952.311 1493.73 956.162 1489.96 959.088 1485.03C962.015 1480.1 963.478 1474.09 963.478 1467.01C963.478 1459.92 962.015 1453.91 959.088 1448.98C956.162 1444.05 952.311 1440.28 947.536 1437.66C942.761 1435.04 937.601 1433.73 932.055 1433.73ZM1125.45 1408.32V1477.87C1125.45 1488.19 1123.14 1497.12 1118.51 1504.67C1113.89 1512.06 1107.58 1517.76 1099.57 1521.77C1091.71 1525.77 1082.78 1527.77 1072.77 1527.77C1062.6 1527.77 1053.51 1525.77 1045.5 1521.77C1037.65 1517.76 1031.41 1512.06 1026.79 1504.67C1022.32 1497.12 1020.09 1488.19 1020.09 1477.87V1408.32H1049.66L1049.89 1472.55C1049.89 1481.64 1051.97 1488.42 1056.13 1492.88C1060.29 1497.35 1065.83 1499.58 1072.77 1499.58C1079.54 1499.58 1085.01 1497.35 1089.17 1492.88C1093.48 1488.42 1095.64 1481.64 1095.64 1472.55V1408.32H1125.45ZM1225.72 1405.32C1234.96 1405.32 1243.51 1407.7 1251.37 1412.48C1259.38 1417.1 1265.77 1423.95 1270.55 1433.04C1275.48 1441.98 1277.94 1452.91 1277.94 1465.85C1277.94 1478.79 1275.48 1489.96 1270.55 1499.35C1265.77 1508.75 1259.22 1515.99 1250.91 1521.07C1242.74 1526 1233.65 1528.47 1223.64 1528.47C1217.17 1528.47 1210.7 1526.93 1204.23 1523.84C1197.92 1520.61 1192.6 1516.61 1188.29 1511.83V1580.45H1158.95V1408.32H1188.29V1427.96C1191.68 1421.64 1196.61 1416.33 1203.08 1412.02C1209.55 1407.55 1217.1 1405.32 1225.72 1405.32ZM1218.33 1434.66C1213.09 1434.66 1208.16 1436.05 1203.54 1438.82C1198.92 1441.44 1195.15 1445.21 1192.22 1450.14C1189.45 1455.07 1188.14 1461 1188.29 1467.93V1484.8C1192.45 1489.11 1196.92 1492.73 1201.69 1495.66C1206.62 1498.43 1211.94 1499.82 1217.64 1499.82C1223.64 1499.82 1228.88 1498.2 1233.35 1494.96C1237.81 1491.73 1241.28 1487.57 1243.74 1482.49C1246.21 1477.25 1247.44 1471.7 1247.44 1465.85C1247.44 1457.07 1244.75 1449.68 1239.35 1443.67C1234.12 1437.66 1227.11 1434.66 1218.33 1434.66ZM1343.56 1405.32C1350.8 1405.32 1357.5 1406.39 1363.66 1408.55C1369.82 1410.71 1374.6 1413.17 1377.99 1415.94V1441.82C1374.29 1439.36 1369.74 1436.97 1364.35 1434.66C1359.12 1432.35 1353.65 1431.19 1347.95 1431.19C1342.4 1431.19 1338.01 1432.43 1334.78 1434.89C1331.54 1437.35 1329.93 1440.28 1329.93 1443.67C1329.93 1446.13 1330.85 1448.44 1332.7 1450.6C1334.55 1452.6 1338.09 1454.38 1343.33 1455.92L1356.5 1460.31C1374.21 1465.54 1383.07 1475.79 1383.07 1491.04C1383.07 1498.28 1380.99 1504.74 1376.83 1510.44C1372.83 1515.99 1367.36 1520.38 1360.43 1523.61C1353.65 1526.85 1346.1 1528.47 1337.78 1528.47C1329.93 1528.47 1322.3 1527.23 1314.91 1524.77C1307.51 1522.3 1301.89 1519.61 1298.04 1516.68V1491.04C1300.97 1493.04 1304.51 1494.96 1308.67 1496.81C1312.83 1498.66 1317.14 1500.2 1321.61 1501.43C1326.08 1502.51 1330.16 1503.05 1333.85 1503.05C1339.71 1503.05 1344.17 1502.05 1347.26 1500.05C1350.49 1497.89 1352.11 1494.89 1352.11 1491.04C1352.11 1488.11 1350.8 1485.8 1348.18 1484.1C1345.56 1482.41 1341.71 1480.72 1336.63 1479.02L1322.3 1473.94C1313.37 1471.01 1307.21 1466.85 1303.82 1461.46C1300.43 1456.07 1298.73 1449.68 1298.73 1442.28C1298.73 1434.89 1300.58 1428.5 1304.28 1423.11C1308.13 1417.56 1313.44 1413.25 1320.22 1410.17C1327 1406.93 1334.78 1405.32 1343.56 1405.32Z" fill="#2F565B"/>
<path d="M1349.86 240.451H1130.18C1119.23 240.451 1108.91 235.034 1103.94 225.276C1093.6 204.971 1080.58 169.707 1104.63 154.05C1130.43 137.253 1167.55 154.05 1167.55 154.05C1167.55 154.05 1164.87 80.3982 1250.54 87.4798C1336.22 94.5614 1317.48 154.05 1317.48 154.05C1317.48 154.05 1356.3 142.719 1373.7 154.05C1402.15 172.577 1386.26 208.219 1374.57 227.427C1369.38 235.961 1359.85 240.451 1349.86 240.451Z" fill="#3B6468" stroke="#3B6468" stroke-width="2.74019"/>
</svg>
